<mxfile host="app.diagrams.net" modified="2024-06-01T19:44:09.526Z" agent="Mozilla/5.0 (Macintosh; Intel Mac OS X 10_15_7) AppleWebKit/537.36 (KHTML, like Gecko) Chrome/125.0.0.0 Safari/537.36" etag="GQ5pvD4UETZdXuFa1-XV" version="24.4.13" type="device">
  <diagram name="Page-1" id="_xR8urMJpzeACZlJe2X2">
    <mxGraphModel dx="1306" dy="748" grid="1" gridSize="10" guides="1" tooltips="1" connect="1" arrows="1" fold="1" page="1" pageScale="1" pageWidth="1100" pageHeight="850" math="0" shadow="0">
      <root>
        <mxCell id="0" />
        <mxCell id="1" parent="0" />
        <mxCell id="6uPYPhoWuHaJcgyPMdrw-79" value="" style="rounded=1;whiteSpace=wrap;html=1;fillColor=#FFC4C6;" parent="1" vertex="1">
          <mxGeometry x="785" y="40" width="135" height="510" as="geometry" />
        </mxCell>
        <mxCell id="6uPYPhoWuHaJcgyPMdrw-86" value="Get tracks data" style="rounded=0;whiteSpace=wrap;html=1;" parent="1" vertex="1">
          <mxGeometry x="792.5" y="50" width="120" height="60" as="geometry" />
        </mxCell>
        <mxCell id="6uPYPhoWuHaJcgyPMdrw-36" style="edgeStyle=orthogonalEdgeStyle;rounded=0;orthogonalLoop=1;jettySize=auto;html=1;" parent="1" edge="1">
          <mxGeometry relative="1" as="geometry">
            <mxPoint x="790" y="290" as="targetPoint" />
            <mxPoint x="710" y="290" as="sourcePoint" />
          </mxGeometry>
        </mxCell>
        <mxCell id="6uPYPhoWuHaJcgyPMdrw-37" value="join" style="edgeLabel;html=1;align=center;verticalAlign=middle;resizable=0;points=[];" parent="6uPYPhoWuHaJcgyPMdrw-36" vertex="1" connectable="0">
          <mxGeometry x="-0.25" relative="1" as="geometry">
            <mxPoint as="offset" />
          </mxGeometry>
        </mxCell>
        <mxCell id="6uPYPhoWuHaJcgyPMdrw-32" value="" style="rounded=1;whiteSpace=wrap;html=1;fillColor=#FFC4C6;" parent="1" vertex="1">
          <mxGeometry x="575" y="50" width="135" height="510" as="geometry" />
        </mxCell>
        <mxCell id="6uPYPhoWuHaJcgyPMdrw-28" style="edgeStyle=orthogonalEdgeStyle;rounded=0;orthogonalLoop=1;jettySize=auto;html=1;" parent="1" source="6uPYPhoWuHaJcgyPMdrw-27" edge="1">
          <mxGeometry relative="1" as="geometry">
            <mxPoint x="560" y="290" as="targetPoint" />
          </mxGeometry>
        </mxCell>
        <mxCell id="6uPYPhoWuHaJcgyPMdrw-31" value="left anti" style="edgeLabel;html=1;align=center;verticalAlign=middle;resizable=0;points=[];" parent="6uPYPhoWuHaJcgyPMdrw-28" vertex="1" connectable="0">
          <mxGeometry x="0.2901" y="-2" relative="1" as="geometry">
            <mxPoint x="-15" as="offset" />
          </mxGeometry>
        </mxCell>
        <mxCell id="6uPYPhoWuHaJcgyPMdrw-27" value="" style="rounded=1;whiteSpace=wrap;html=1;fillColor=#0AFFB6;" parent="1" vertex="1">
          <mxGeometry x="20" y="10" width="440" height="560" as="geometry" />
        </mxCell>
        <mxCell id="6uPYPhoWuHaJcgyPMdrw-9" value="" style="shape=image;verticalLabelPosition=bottom;labelBackgroundColor=default;verticalAlign=top;aspect=fixed;imageAspect=0;image=https://miro.medium.com/v2/resize:fit:658/1*IMTsjNy4b_3nHODRvH-T9g.png;" parent="1" vertex="1">
          <mxGeometry x="70" y="90" width="137.72" height="45" as="geometry" />
        </mxCell>
        <mxCell id="6uPYPhoWuHaJcgyPMdrw-1" value="Actor" style="shape=umlActor;verticalLabelPosition=bottom;verticalAlign=top;html=1;outlineConnect=0;" parent="1" vertex="1">
          <mxGeometry x="1190" y="291.40999999999997" width="30" height="60" as="geometry" />
        </mxCell>
        <mxCell id="6uPYPhoWuHaJcgyPMdrw-3" value="" style="shape=cylinder3;whiteSpace=wrap;html=1;boundedLbl=1;backgroundOutline=1;size=15;" parent="1" vertex="1">
          <mxGeometry x="605" y="135" width="60" height="80" as="geometry" />
        </mxCell>
        <mxCell id="6uPYPhoWuHaJcgyPMdrw-4" value="&lt;div&gt;Likes Table&lt;/div&gt;" style="text;html=1;align=center;verticalAlign=middle;resizable=0;points=[];autosize=1;strokeColor=none;fillColor=none;" parent="1" vertex="1">
          <mxGeometry x="595" y="230" width="80" height="30" as="geometry" />
        </mxCell>
        <mxCell id="6uPYPhoWuHaJcgyPMdrw-13" style="edgeStyle=orthogonalEdgeStyle;rounded=0;orthogonalLoop=1;jettySize=auto;html=1;" parent="1" source="6uPYPhoWuHaJcgyPMdrw-7" edge="1">
          <mxGeometry relative="1" as="geometry">
            <mxPoint x="350" y="290" as="targetPoint" />
          </mxGeometry>
        </mxCell>
        <mxCell id="6uPYPhoWuHaJcgyPMdrw-16" value="User Mean Vector" style="edgeLabel;html=1;align=center;verticalAlign=middle;resizable=0;points=[];" parent="6uPYPhoWuHaJcgyPMdrw-13" vertex="1" connectable="0">
          <mxGeometry x="-0.5739" y="1" relative="1" as="geometry">
            <mxPoint as="offset" />
          </mxGeometry>
        </mxCell>
        <mxCell id="6uPYPhoWuHaJcgyPMdrw-7" value="" style="shape=cylinder3;whiteSpace=wrap;html=1;boundedLbl=1;backgroundOutline=1;size=15;" parent="1" vertex="1">
          <mxGeometry x="108.86" y="140" width="60" height="80" as="geometry" />
        </mxCell>
        <mxCell id="6uPYPhoWuHaJcgyPMdrw-8" value="Users Index" style="text;html=1;align=center;verticalAlign=middle;resizable=0;points=[];autosize=1;strokeColor=none;fillColor=none;" parent="1" vertex="1">
          <mxGeometry x="93.86" y="240" width="90" height="30" as="geometry" />
        </mxCell>
        <mxCell id="6uPYPhoWuHaJcgyPMdrw-10" value="" style="shape=image;verticalLabelPosition=bottom;labelBackgroundColor=default;verticalAlign=top;aspect=fixed;imageAspect=0;image=https://miro.medium.com/v2/resize:fit:658/1*IMTsjNy4b_3nHODRvH-T9g.png;" parent="1" vertex="1">
          <mxGeometry x="76.14" y="370" width="137.72" height="45" as="geometry" />
        </mxCell>
        <mxCell id="6uPYPhoWuHaJcgyPMdrw-14" style="edgeStyle=orthogonalEdgeStyle;rounded=0;orthogonalLoop=1;jettySize=auto;html=1;" parent="1" source="6uPYPhoWuHaJcgyPMdrw-11" target="6uPYPhoWuHaJcgyPMdrw-15" edge="1">
          <mxGeometry relative="1" as="geometry">
            <mxPoint x="350" y="360" as="targetPoint" />
          </mxGeometry>
        </mxCell>
        <mxCell id="6uPYPhoWuHaJcgyPMdrw-17" value="Tracks vectors" style="edgeLabel;html=1;align=center;verticalAlign=middle;resizable=0;points=[];" parent="6uPYPhoWuHaJcgyPMdrw-14" vertex="1" connectable="0">
          <mxGeometry x="-0.5719" y="-3" relative="1" as="geometry">
            <mxPoint as="offset" />
          </mxGeometry>
        </mxCell>
        <mxCell id="6uPYPhoWuHaJcgyPMdrw-11" value="" style="shape=cylinder3;whiteSpace=wrap;html=1;boundedLbl=1;backgroundOutline=1;size=15;" parent="1" vertex="1">
          <mxGeometry x="115" y="420" width="60" height="80" as="geometry" />
        </mxCell>
        <mxCell id="6uPYPhoWuHaJcgyPMdrw-12" value="Tracks Index" style="text;html=1;align=center;verticalAlign=middle;resizable=0;points=[];autosize=1;strokeColor=none;fillColor=none;" parent="1" vertex="1">
          <mxGeometry x="100" y="520" width="90" height="30" as="geometry" />
        </mxCell>
        <mxCell id="6uPYPhoWuHaJcgyPMdrw-15" value="Cosine&lt;div&gt;distance&lt;/div&gt;" style="rounded=0;whiteSpace=wrap;html=1;" parent="1" vertex="1">
          <mxGeometry x="290" y="290" width="120" height="60" as="geometry" />
        </mxCell>
        <mxCell id="6uPYPhoWuHaJcgyPMdrw-20" value="" style="shape=image;verticalLabelPosition=bottom;labelBackgroundColor=default;verticalAlign=top;aspect=fixed;imageAspect=0;image=https://upload.wikimedia.org/wikipedia/commons/thumb/2/29/Postgresql_elephant.svg/800px-Postgresql_elephant.svg.png;" parent="1" vertex="1">
          <mxGeometry x="650" y="190" width="45" height="46.41" as="geometry" />
        </mxCell>
        <mxCell id="6uPYPhoWuHaJcgyPMdrw-21" value="" style="shape=cylinder3;whiteSpace=wrap;html=1;boundedLbl=1;backgroundOutline=1;size=15;" parent="1" vertex="1">
          <mxGeometry x="605" y="420" width="60" height="80" as="geometry" />
        </mxCell>
        <mxCell id="6uPYPhoWuHaJcgyPMdrw-22" value="&lt;div&gt;Dislikes Table&lt;/div&gt;" style="text;html=1;align=center;verticalAlign=middle;resizable=0;points=[];autosize=1;strokeColor=none;fillColor=none;" parent="1" vertex="1">
          <mxGeometry x="585" y="515" width="100" height="30" as="geometry" />
        </mxCell>
        <mxCell id="6uPYPhoWuHaJcgyPMdrw-23" value="" style="shape=image;verticalLabelPosition=bottom;labelBackgroundColor=default;verticalAlign=top;aspect=fixed;imageAspect=0;image=https://upload.wikimedia.org/wikipedia/commons/thumb/2/29/Postgresql_elephant.svg/800px-Postgresql_elephant.svg.png;" parent="1" vertex="1">
          <mxGeometry x="650" y="475" width="45" height="46.41" as="geometry" />
        </mxCell>
        <mxCell id="6uPYPhoWuHaJcgyPMdrw-30" value="Get tracks Ids&amp;nbsp;&lt;div&gt;to recommend&lt;/div&gt;" style="rounded=0;whiteSpace=wrap;html=1;" parent="1" vertex="1">
          <mxGeometry x="170" y="20" width="120" height="60" as="geometry" />
        </mxCell>
        <mxCell id="6uPYPhoWuHaJcgyPMdrw-33" value="Tracks already&amp;nbsp;&lt;div&gt;marked by the user&lt;/div&gt;" style="rounded=0;whiteSpace=wrap;html=1;" parent="1" vertex="1">
          <mxGeometry x="582.5" y="60" width="120" height="60" as="geometry" />
        </mxCell>
        <mxCell id="6uPYPhoWuHaJcgyPMdrw-65" style="edgeStyle=orthogonalEdgeStyle;rounded=0;orthogonalLoop=1;jettySize=auto;html=1;" parent="1" source="6uPYPhoWuHaJcgyPMdrw-42" edge="1">
          <mxGeometry relative="1" as="geometry">
            <mxPoint x="560" y="960" as="targetPoint" />
          </mxGeometry>
        </mxCell>
        <mxCell id="6uPYPhoWuHaJcgyPMdrw-74" value="join" style="edgeLabel;html=1;align=center;verticalAlign=middle;resizable=0;points=[];" parent="6uPYPhoWuHaJcgyPMdrw-65" vertex="1" connectable="0">
          <mxGeometry x="0.2807" y="-2" relative="1" as="geometry">
            <mxPoint x="1" as="offset" />
          </mxGeometry>
        </mxCell>
        <mxCell id="6uPYPhoWuHaJcgyPMdrw-42" value="" style="rounded=1;whiteSpace=wrap;html=1;fillColor=#0AFFB6;" parent="1" vertex="1">
          <mxGeometry x="20" y="680" width="440" height="560" as="geometry" />
        </mxCell>
        <mxCell id="6uPYPhoWuHaJcgyPMdrw-43" value="" style="shape=image;verticalLabelPosition=bottom;labelBackgroundColor=default;verticalAlign=top;aspect=fixed;imageAspect=0;image=https://miro.medium.com/v2/resize:fit:658/1*IMTsjNy4b_3nHODRvH-T9g.png;" parent="1" vertex="1">
          <mxGeometry x="70" y="760" width="137.72" height="45" as="geometry" />
        </mxCell>
        <mxCell id="6uPYPhoWuHaJcgyPMdrw-44" style="edgeStyle=orthogonalEdgeStyle;rounded=0;orthogonalLoop=1;jettySize=auto;html=1;" parent="1" source="6uPYPhoWuHaJcgyPMdrw-46" edge="1">
          <mxGeometry relative="1" as="geometry">
            <mxPoint x="350" y="960" as="targetPoint" />
          </mxGeometry>
        </mxCell>
        <mxCell id="6uPYPhoWuHaJcgyPMdrw-45" value="User Mean Vector" style="edgeLabel;html=1;align=center;verticalAlign=middle;resizable=0;points=[];" parent="6uPYPhoWuHaJcgyPMdrw-44" vertex="1" connectable="0">
          <mxGeometry x="-0.5739" y="1" relative="1" as="geometry">
            <mxPoint as="offset" />
          </mxGeometry>
        </mxCell>
        <mxCell id="6uPYPhoWuHaJcgyPMdrw-46" value="" style="shape=cylinder3;whiteSpace=wrap;html=1;boundedLbl=1;backgroundOutline=1;size=15;" parent="1" vertex="1">
          <mxGeometry x="108.86" y="810" width="60" height="80" as="geometry" />
        </mxCell>
        <mxCell id="6uPYPhoWuHaJcgyPMdrw-47" value="Users Index" style="text;html=1;align=center;verticalAlign=middle;resizable=0;points=[];autosize=1;strokeColor=none;fillColor=none;" parent="1" vertex="1">
          <mxGeometry x="93.86" y="910" width="90" height="30" as="geometry" />
        </mxCell>
        <mxCell id="6uPYPhoWuHaJcgyPMdrw-48" value="" style="shape=image;verticalLabelPosition=bottom;labelBackgroundColor=default;verticalAlign=top;aspect=fixed;imageAspect=0;image=https://miro.medium.com/v2/resize:fit:658/1*IMTsjNy4b_3nHODRvH-T9g.png;" parent="1" vertex="1">
          <mxGeometry x="76.14" y="1040" width="137.72" height="45" as="geometry" />
        </mxCell>
        <mxCell id="6uPYPhoWuHaJcgyPMdrw-49" style="edgeStyle=orthogonalEdgeStyle;rounded=0;orthogonalLoop=1;jettySize=auto;html=1;" parent="1" source="6uPYPhoWuHaJcgyPMdrw-51" target="6uPYPhoWuHaJcgyPMdrw-53" edge="1">
          <mxGeometry relative="1" as="geometry">
            <mxPoint x="350" y="1030" as="targetPoint" />
          </mxGeometry>
        </mxCell>
        <mxCell id="6uPYPhoWuHaJcgyPMdrw-50" value="Users Mean Vectors" style="edgeLabel;html=1;align=center;verticalAlign=middle;resizable=0;points=[];" parent="6uPYPhoWuHaJcgyPMdrw-49" vertex="1" connectable="0">
          <mxGeometry x="-0.5719" y="-3" relative="1" as="geometry">
            <mxPoint as="offset" />
          </mxGeometry>
        </mxCell>
        <mxCell id="6uPYPhoWuHaJcgyPMdrw-51" value="" style="shape=cylinder3;whiteSpace=wrap;html=1;boundedLbl=1;backgroundOutline=1;size=15;" parent="1" vertex="1">
          <mxGeometry x="115" y="1090" width="60" height="80" as="geometry" />
        </mxCell>
        <mxCell id="6uPYPhoWuHaJcgyPMdrw-52" value="Users Index" style="text;html=1;align=center;verticalAlign=middle;resizable=0;points=[];autosize=1;strokeColor=none;fillColor=none;" parent="1" vertex="1">
          <mxGeometry x="100" y="1190" width="90" height="30" as="geometry" />
        </mxCell>
        <mxCell id="6uPYPhoWuHaJcgyPMdrw-53" value="Cosine&lt;div&gt;distance&lt;/div&gt;" style="rounded=0;whiteSpace=wrap;html=1;" parent="1" vertex="1">
          <mxGeometry x="290" y="960" width="120" height="60" as="geometry" />
        </mxCell>
        <mxCell id="6uPYPhoWuHaJcgyPMdrw-54" value="Get similar user ids&amp;nbsp;" style="rounded=0;whiteSpace=wrap;html=1;" parent="1" vertex="1">
          <mxGeometry x="170" y="690" width="120" height="60" as="geometry" />
        </mxCell>
        <mxCell id="6uPYPhoWuHaJcgyPMdrw-57" value="" style="rounded=1;whiteSpace=wrap;html=1;fillColor=#FFC4C6;" parent="1" vertex="1">
          <mxGeometry x="570" y="705" width="135" height="510" as="geometry" />
        </mxCell>
        <mxCell id="6uPYPhoWuHaJcgyPMdrw-58" value="" style="shape=cylinder3;whiteSpace=wrap;html=1;boundedLbl=1;backgroundOutline=1;size=15;" parent="1" vertex="1">
          <mxGeometry x="602.5" y="897.5" width="60" height="80" as="geometry" />
        </mxCell>
        <mxCell id="6uPYPhoWuHaJcgyPMdrw-59" value="&lt;div&gt;Likes Table&lt;/div&gt;" style="text;html=1;align=center;verticalAlign=middle;resizable=0;points=[];autosize=1;strokeColor=none;fillColor=none;" parent="1" vertex="1">
          <mxGeometry x="592.5" y="992.5" width="80" height="30" as="geometry" />
        </mxCell>
        <mxCell id="6uPYPhoWuHaJcgyPMdrw-75" style="edgeStyle=orthogonalEdgeStyle;rounded=0;orthogonalLoop=1;jettySize=auto;html=1;" parent="1" edge="1">
          <mxGeometry relative="1" as="geometry">
            <mxPoint x="827.5" y="958.7449999999999" as="targetPoint" />
            <mxPoint x="710" y="958.7899999999997" as="sourcePoint" />
          </mxGeometry>
        </mxCell>
        <mxCell id="6uPYPhoWuHaJcgyPMdrw-76" value="left anti" style="edgeLabel;html=1;align=center;verticalAlign=middle;resizable=0;points=[];" parent="6uPYPhoWuHaJcgyPMdrw-75" vertex="1" connectable="0">
          <mxGeometry x="0.0234" y="4" relative="1" as="geometry">
            <mxPoint as="offset" />
          </mxGeometry>
        </mxCell>
        <mxCell id="6uPYPhoWuHaJcgyPMdrw-60" value="" style="shape=image;verticalLabelPosition=bottom;labelBackgroundColor=default;verticalAlign=top;aspect=fixed;imageAspect=0;image=https://upload.wikimedia.org/wikipedia/commons/thumb/2/29/Postgresql_elephant.svg/800px-Postgresql_elephant.svg.png;" parent="1" vertex="1">
          <mxGeometry x="647.5" y="952.5" width="45" height="46.41" as="geometry" />
        </mxCell>
        <mxCell id="6uPYPhoWuHaJcgyPMdrw-64" value="Get similar users liked tracks ids" style="rounded=0;whiteSpace=wrap;html=1;" parent="1" vertex="1">
          <mxGeometry x="577.5" y="715" width="120" height="60" as="geometry" />
        </mxCell>
        <mxCell id="pK6xOEjmNQUOr7NdrkoV-16" style="edgeStyle=orthogonalEdgeStyle;rounded=0;orthogonalLoop=1;jettySize=auto;html=1;" edge="1" parent="1" source="6uPYPhoWuHaJcgyPMdrw-66">
          <mxGeometry relative="1" as="geometry">
            <mxPoint x="1060" y="960" as="targetPoint" />
          </mxGeometry>
        </mxCell>
        <mxCell id="pK6xOEjmNQUOr7NdrkoV-17" value="join" style="edgeLabel;html=1;align=center;verticalAlign=middle;resizable=0;points=[];" vertex="1" connectable="0" parent="pK6xOEjmNQUOr7NdrkoV-16">
          <mxGeometry x="0.1619" y="-2" relative="1" as="geometry">
            <mxPoint as="offset" />
          </mxGeometry>
        </mxCell>
        <mxCell id="6uPYPhoWuHaJcgyPMdrw-66" value="" style="rounded=1;whiteSpace=wrap;html=1;fillColor=#FFC4C6;" parent="1" vertex="1">
          <mxGeometry x="830" y="705" width="135" height="510" as="geometry" />
        </mxCell>
        <mxCell id="6uPYPhoWuHaJcgyPMdrw-67" value="" style="shape=cylinder3;whiteSpace=wrap;html=1;boundedLbl=1;backgroundOutline=1;size=15;" parent="1" vertex="1">
          <mxGeometry x="860" y="790" width="60" height="80" as="geometry" />
        </mxCell>
        <mxCell id="6uPYPhoWuHaJcgyPMdrw-68" value="&lt;div&gt;Likes Table&lt;/div&gt;" style="text;html=1;align=center;verticalAlign=middle;resizable=0;points=[];autosize=1;strokeColor=none;fillColor=none;" parent="1" vertex="1">
          <mxGeometry x="850" y="885" width="80" height="30" as="geometry" />
        </mxCell>
        <mxCell id="6uPYPhoWuHaJcgyPMdrw-69" value="" style="shape=image;verticalLabelPosition=bottom;labelBackgroundColor=default;verticalAlign=top;aspect=fixed;imageAspect=0;image=https://upload.wikimedia.org/wikipedia/commons/thumb/2/29/Postgresql_elephant.svg/800px-Postgresql_elephant.svg.png;" parent="1" vertex="1">
          <mxGeometry x="905" y="845" width="45" height="46.41" as="geometry" />
        </mxCell>
        <mxCell id="6uPYPhoWuHaJcgyPMdrw-70" value="" style="shape=cylinder3;whiteSpace=wrap;html=1;boundedLbl=1;backgroundOutline=1;size=15;" parent="1" vertex="1">
          <mxGeometry x="860" y="1075" width="60" height="80" as="geometry" />
        </mxCell>
        <mxCell id="6uPYPhoWuHaJcgyPMdrw-71" value="&lt;div&gt;Dislikes Table&lt;/div&gt;" style="text;html=1;align=center;verticalAlign=middle;resizable=0;points=[];autosize=1;strokeColor=none;fillColor=none;" parent="1" vertex="1">
          <mxGeometry x="840" y="1170" width="100" height="30" as="geometry" />
        </mxCell>
        <mxCell id="6uPYPhoWuHaJcgyPMdrw-72" value="" style="shape=image;verticalLabelPosition=bottom;labelBackgroundColor=default;verticalAlign=top;aspect=fixed;imageAspect=0;image=https://upload.wikimedia.org/wikipedia/commons/thumb/2/29/Postgresql_elephant.svg/800px-Postgresql_elephant.svg.png;" parent="1" vertex="1">
          <mxGeometry x="905" y="1130" width="45" height="46.41" as="geometry" />
        </mxCell>
        <mxCell id="6uPYPhoWuHaJcgyPMdrw-73" value="Remove the Tacks&amp;nbsp; ids that already&amp;nbsp;&lt;div&gt;marked by the user&lt;/div&gt;" style="rounded=0;whiteSpace=wrap;html=1;" parent="1" vertex="1">
          <mxGeometry x="837.5" y="715" width="120" height="60" as="geometry" />
        </mxCell>
        <mxCell id="6uPYPhoWuHaJcgyPMdrw-87" value="" style="shape=cylinder3;whiteSpace=wrap;html=1;boundedLbl=1;backgroundOutline=1;size=15;" parent="1" vertex="1">
          <mxGeometry x="820" y="230" width="60" height="80" as="geometry" />
        </mxCell>
        <mxCell id="6uPYPhoWuHaJcgyPMdrw-88" value="&lt;div&gt;Tracks Table&lt;/div&gt;" style="text;html=1;align=center;verticalAlign=middle;resizable=0;points=[];autosize=1;strokeColor=none;fillColor=none;" parent="1" vertex="1">
          <mxGeometry x="805" y="325" width="90" height="30" as="geometry" />
        </mxCell>
        <mxCell id="6uPYPhoWuHaJcgyPMdrw-89" value="" style="shape=image;verticalLabelPosition=bottom;labelBackgroundColor=default;verticalAlign=top;aspect=fixed;imageAspect=0;image=https://upload.wikimedia.org/wikipedia/commons/thumb/2/29/Postgresql_elephant.svg/800px-Postgresql_elephant.svg.png;" parent="1" vertex="1">
          <mxGeometry x="860" y="279.84" width="50" height="51.57" as="geometry" />
        </mxCell>
        <mxCell id="6uPYPhoWuHaJcgyPMdrw-91" value="" style="triangle;whiteSpace=wrap;html=1;" parent="1" vertex="1">
          <mxGeometry x="1085" y="265" width="60" height="80" as="geometry" />
        </mxCell>
        <mxCell id="6uPYPhoWuHaJcgyPMdrw-92" value="Send ecommendation&lt;div&gt;result&lt;/div&gt;" style="rounded=1;whiteSpace=wrap;html=1;" parent="1" vertex="1">
          <mxGeometry x="965" y="291.40999999999997" width="120" height="30" as="geometry" />
        </mxCell>
        <mxCell id="pK6xOEjmNQUOr7NdrkoV-1" value="" style="shape=image;verticalLabelPosition=bottom;labelBackgroundColor=default;verticalAlign=top;aspect=fixed;imageAspect=0;image=data:image/png,iVBORw0KGgoAAAANSUhEUgAAASIAAACwCAYAAACrZ2NKAAAKrWlDQ1BJQ0MgUHJvZmlsZQAASImVlwdQU+kWgP97bzoJLSEUKaE3QToBpITQAihIB1EJSYBQQgwEFTuyuAIriogIKIKuiii4FkAWG6JYUWxgXZBFQVkXCzZU3gWGsLtv3nvzzsyZ891zz3/+c/65/8y5AFAUuWJxKqwIQJooUxLi68mIio5h4AcBAlQBDhABicvLELOCgwMBKtP27/LhPoAm7B2LiVz//v6/ihJfkMEDAApGOZ6fwUtD+QSqL3liSSYAyB7Ur78sUzzB7SjTJGiBKPdMcOIUD09w/CRjwGRMWAgbZRoABDKXK0kEgMxA/YwsXiKah+yBspWILxShLEbZLS0tnY/yUZRN0BjUR57Iz4z/S57Ev+WMl+XkchNlPNXLpBC8hBniVO6K//M4/rekpUqn9zBClZwk8QtBrTJ6Zj0p6QEyFsXPD5pmIX8yfpKTpH7h08zLYMdMM5/rFSBbmzo/cJoThD4cWZ5MTtg0CzK8Q6dZkh4i2ytBwmZNM1cys680JVzmTxJwZPmzk8IipzlLGDF/mjNSQgNmYtgyv0QaIqtfIPL1nNnXR9Z7WsZf+hVyZGszk8L8ZL1zZ+oXiFgzOTOiZLXxBV7eMzHhsnhxpqdsL3FqsCxekOor82dkhcrWZqIf5MzaYNkZJnP9g6cZsEE6SEVVAhggEH3yAiBTsDxzohF2uniFRJiYlMlgoTdMwOCIeJazGTZWNnYATNzXqc/hHX3yHkL0qzO+DWjvrpvHx8dbZ3wBKwE4NgoA6caMz4QCgMJqAC7v40klWVO+ybuEBSSgAGhAHWgDfWACLIANcAAuwAN4A38QBMJANFgMeCAJpKGVLwOrwHqQBwrAFrAdlIMqsBccBEfAMdAEWsF5cAlcA7fAPfAI9IIB8AqMgA9gDIIgPESBqJA6pAMZQuaQDcSE3CBvKBAKgaKhOCgREkFSaBW0ASqAiqFyqBqqhX6BTkHnoStQF/QA6oOGoLfQFxiByTAN1oKN4DkwE2bBAXAYvAhOhJfC2XAuvBkug2vgw3AjfB6+Bt+De+FX8CgCEDmEjugiFggTYSNBSAySgEiQNUg+UorUIPVIC9KB3EF6kWHkMwaHoWIYGAuMC8YPE47hYZZi1mAKMeWYg5hGTDvmDqYPM4L5jqVgNbHmWGcsBxuFTcQuw+ZhS7H7sSexF7H3sAPYDzgcjo4zxjni/HDRuGTcSlwhbheuAXcO14Xrx43i8Xh1vDneFR+E5+Iz8Xn4nfjD+LP42/gB/CeCHEGHYEPwIcQQRIQcQinhEOEM4TbhBWGMqEg0JDoTg4h84gpiEXEfsYV4kzhAHCMpkYxJrqQwUjJpPamMVE+6SHpMeicnJ6cn5yS3QE4ot06uTO6o3GW5PrnPZGWyGZlNjiVLyZvJB8jnyA/I7ygUihHFgxJDyaRsptRSLlCeUj7JU+Ut5TnyfPm18hXyjfK35V8rEBUMFVgKixWyFUoVjivcVBhWJCoaKbIVuYprFCsUTyl2K44qUZWslYKU0pQKlQ4pXVEaVMYrGyl7K/OVc5X3Kl9Q7qciVH0qm8qjbqDuo16kDtBwNGMah5ZMK6AdoXXSRlSUVexUIlSWq1SonFbppSN0IzqHnkovoh+j36d/UdVSZakKVDep1qveVv2oNkvNQ02glq/WoHZP7Ys6Q91bPUV9q3qT+hMNjIaZxgKNZRq7NS5qDM+izXKZxZuVP+vYrIeasKaZZojmSs29mtc1R7W0tXy1xFo7tS5oDWvTtT20k7VLtM9oD+lQddx0hDolOmd1XjJUGCxGKqOM0c4Y0dXU9dOV6lbrduqO6Rnrhevl6DXoPdEn6TP1E/RL9Nv0Rwx0DOYZrDKoM3hoSDRkGiYZ7jDsMPxoZGwUabTRqMlo0FjNmGOcbVxn/NiEYuJustSkxuSuKc6UaZpiusv0lhlsZm+WZFZhdtMcNncwF5rvMu+ajZ3tNFs0u2Z2twXZgmWRZVFn0WdJtwy0zLFssnw9x2BOzJytczrmfLeyt0q12mf1yFrZ2t86x7rF+q2NmQ3PpsLmri3F1sd2rW2z7Rs7czuB3W67Hnuq/Tz7jfZt9t8cHB0kDvUOQ44GjnGOlY7dTBozmFnIvOyEdfJ0WuvU6vTZ2cE50/mY858uFi4pLodcBucazxXM3Te331XPleta7drrxnCLc9vj1uuu6851r3F/5qHvwffY7/GCZcpKZh1mvfa08pR4nvT8yHZmr2af80K8fL3yvTq9lb3Dvcu9n/ro+ST61PmM+Nr7rvQ954f1C/Db6tfN0eLwOLWcEX9H/9X+7QHkgNCA8oBngWaBksCWefA8/3nb5j2ebzhfNL8pCARxgrYFPQk2Dl4a/OsC3ILgBRULnodYh6wK6Qilhi4JPRT6IcwzrCjsUbhJuDS8LUIhIjaiNuJjpFdkcWRv1Jyo1VHXojWihdHNMfiYiJj9MaMLvRduXzgQax+bF3t/kfGi5YuuLNZYnLr49BKFJdwlx+OwcZFxh+K+coO4NdzReE58ZfwIj83bwXvF9+CX8IcEroJiwYsE14TihMFE18RtiUNJ7kmlScNCtrBc+CbZL7kq+WNKUMqBlPHUyNSGNEJaXNopkbIoRdSerp2+PL1LbC7OE/cudV66femIJECyPwPKWJTRnElDB6PrUhPpD9K+LLesiqxPyyKWHV+utFy0/PoKsxWbVrzI9sn+eSVmJW9l2yrdVetX9a1mra5eA62JX9O2Vn9t7tqBdb7rDq4nrU9ZfyPHKqc45/2GyA0tuVq563L7f/D9oS5PPk+S173RZWPVj5gfhT92brLdtHPT93x+/tUCq4LSgq+FvMKrP1n/VPbT+OaEzZ1FDkW7t+C2iLbc3+q+9WCxUnF2cf+2edsaSxgl+SXvty/ZfqXUrrRqB2mHdEdvWWBZ806DnVt2fi1PKr9X4VnRUKlZuany4y7+rtu7PXbXV2lVFVR92SPc01PtW91YY1RTuhe3N2vv830R+zp+Zv5cu19jf8H+bwdEB3oPhhxsr3WsrT2keaioDq6T1g0djj1864jXkeZ6i/rqBnpDwVFwVHr05S9xv9w/FnCs7TjzeP0JwxOVJ6kn8xuhxhWNI01JTb3N0c1dp/xPtbW4tJz81fLXA626rRWnVU4XnSGdyT0zfjb77Og58bnh84nn+9uWtD26EHXhbvuC9s6LARcvX/K5dKGD1XH2suvl1ivOV05dZV5tuuZwrfG6/fWTN+xvnOx06Gy86Xiz+ZbTrZauuV1nbrvfPn/H686lu5y71+7Nv9d1P/x+T3dsd28Pv2fwQeqDNw+zHo49WvcY+zj/ieKT0qeaT2t+M/2todeh93SfV9/1Z6HPHvXz+l/9nvH714Hc55TnpS90XtQO2gy2DvkM3Xq58OXAK/GrseG8P5T+qHxt8vrEnx5/Xh+JGhl4I3kz/rbwnfq7A+/t3reNBo8+/ZD2Yexj/if1Twc/Mz93fIn88mJs2Vf817Jvpt9avgd8fzyeNj4u5kq4k6MAgiqckADA2wMAUKIBoN5C54eFU/P0pEBT/wCTBP4TT83ck+IAQD1qJsYi9jkAjqJqtA4AeQ8AJkaiMA8A29rKdHr2nZzTJwSH/rHs8ZqgB9vio8A/ZGqG/0vd/7RgIqsd+Kf9F9nyBpaPuw7SAAAAimVYSWZNTQAqAAAACAAEARoABQAAAAEAAAA+ARsABQAAAAEAAABGASgAAwAAAAEAAgAAh2kABAAAAAEAAABOAAAAAAAAAJAAAAABAAAAkAAAAAEAA5KGAAcAAAASAAAAeKACAAQAAAABAAABIqADAAQAAAABAAAAsAAAAABBU0NJSQAAAFNjcmVlbnNob3SbpBXUAAAACXBIWXMAABYlAAAWJQFJUiTwAAAB1mlUWHRYTUw6Y29tLmFkb2JlLnhtcAAAAAAAPHg6eG1wbWV0YSB4bWxuczp4PSJhZG9iZTpuczptZXRhLyIgeDp4bXB0az0iWE1QIENvcmUgNi4wLjAiPgogICA8cmRmOlJERiB4bWxuczpyZGY9Imh0dHA6Ly93d3cudzMub3JnLzE5OTkvMDIvMjItcmRmLXN5bnRheC1ucyMiPgogICAgICA8cmRmOkRlc2NyaXB0aW9uIHJkZjphYm91dD0iIgogICAgICAgICAgICB4bWxuczpleGlmPSJodHRwOi8vbnMuYWRvYmUuY29tL2V4aWYvMS4wLyI+CiAgICAgICAgIDxleGlmOlBpeGVsWURpbWVuc2lvbj4xNzY8L2V4aWY6UGl4ZWxZRGltZW5zaW9uPgogICAgICAgICA8ZXhpZjpQaXhlbFhEaW1lbnNpb24+MjkwPC9leGlmOlBpeGVsWERpbWVuc2lvbj4KICAgICAgICAgPGV4aWY6VXNlckNvbW1lbnQ+U2NyZWVuc2hvdDwvZXhpZjpVc2VyQ29tbWVudD4KICAgICAgPC9yZGY6RGVzY3JpcHRpb24+CiAgIDwvcmRmOlJERj4KPC94OnhtcG1ldGE+CjdzdU0AAAAcaURPVAAAAAIAAAAAAAAAWAAAACgAAABYAAAAWAAAHfONO6zcAAAdv0lEQVR4AexdB3Rbx5W9AAkSYO9NlChSItUpkaZ6tyzJaparJLfEiXMS7zrrJM7mxNlNsuckjjdlk13nxJvsxmfj3TiW3GTLRbYcxZZlq1uFpLooFrECLAAJEo0AuPM+NeAHCIAABbBI833k+X/mzZuZ+z8up7x5o+hjF8QlEBAICARGEQGFnIhOnz4tVYW4yZOfPON4umc8KXA6na4myeUokj/ze5vNBpVK5ZKnG3l+nsDzUWgymRATE8OTXDq5jCtBdiNPo3sqQ6lUuiTk6TySx/GQx8tDeZr8nmSsViuioqLk4vDWXjeB6w+eurzJUFwgcp4y8rbL732V4Rnvqc8zPdBnu90+6N3zvMOpl0Kh4Nn9hoHK0ftTq9UuXb7qRPr86QwknQrxpoPH0XdD3xJ/5pWSP8vv5ene4uXlydPl91ymt7fX9R3zdArl91yWQv674une4iiN5ObOnUvJcBHRmTNncPHiRUyfPl0qQK5ErkjKdP2FcxlfoWc+nlcuTy87Ojra1ShPGXqmS57HaDQiPj7eLV4uIyXI/kd5eX4eTT+CyMhI6dFbOpfj+XjI4ymUx8nveZrZbIZGo3FlIRmLxeL2cbsSPfTJ4/m9Zxk8nof+0uVpDocDERERUjY5DlyPPJTnk8eH4p6woHfv7fKsV6DkF6ictzI94+g7i4uLc0UTbvxHxiN5eTzk8Tzk8Tz0jOfPPCQ5T1lKk2PF0ymk9yN/5np4SGk8ncdRGEw8/+PJ9fCQiJnr8gy5jDyke/5Mefft24dnnnlG0uEiovLychDQpaWlUoL4n0BAICAQCBcCREivvPIKHn74YakIFxFVVFSA/goJIgoX9EKvQEAgwBHgRPTQQw9JvTo3IqKx4G233cZlRSgQEAgIBMKCABHRzp078eCDD7oT0dmzZ6VxaFlZWVgKFkoFAgIBgQBHgBPRjh07pHk3V4+IiIgmV+fPn89lRSgQEAgIBMKCABHRrl27sH37dnciOnfunLQsLogoLLgLpQIBgYAMAU5E27Ztk1ZwXT0iIqKenh4sWLBAJi5uBQICAYFA6BEgInr11VfxwAMPuBPRhQsX0NXVhYULFwZVKtk3dHd3SytulJEMwJKSkoLS4U04XHq9lSXiBAICgZFFgBPR/fffL9nzuXpERESdnZ1YtGhRQDWipf6qw4fQ/snHcJ4+iWilAmTeZJtSiMzNdyGn9DaX0WFACq8Lkd7qs/thuPomoDuDaJWSWUH3wRY3GamzHkNmwfJh6fWsgyA6T0TEs0Bg5BAgInrttddw7733Stb1LiIiq2qDwRAQERFZVL75Bqxvv4n8KPftGdSUZjbpbV27AXMf/ZJPK2JvTSa9Fw6/CHvV/yE/3X1rhKS33QJT9l2YtfLpoPTKy6IyDp8/ggPVB3BOXw5lpJJZewJ5MQXYWLQRpfklISE6eZniXiAgEHBHwC8R6fV6LF682D2Hl6eLBz+F4fe/80pCXLyR7QfDfdtRuuNBHjVkeLn8Q/Sc/IlXEuKZG9sscEx5DMUrnuBRAYdEQm8cewsf1L0LTdZgoutu7cGq1DvwyLKHh010AVdGCAoEbnEEqEd099139++hY8wk7b6/dOkS2tvbsWTJEr/w0BL/qV/+HFOrr/iVo8SqnImY84N/RkJCwpCypLdy71Moihpa7xVTDqZt+ENAeuUFH6z8DC9W/BEx2YNJiMt163qwJfcebF+2jUeJUCAgEAgDAjRZfc8997gT0eXLl9HW1jYkEZHMhce/jKKkxCGrVu9wIvun/4oJ+flDypLe6tc3oCg3dkjZ+g47Ute8hJzcqUPKcgEiul999Gs0xdfyKJ9hiiETz9zx/aCJzqdCkSAQEAgMQoB6RFu3bu3f9M57REePHpV6RJs2bRqUQR7R0tKCa09+HXmyXcnydPk9zRVFPf4EZq5fL4/2ek96te9tRV7mwG51r4IssqXDAsWs72Ja2QO+RAbFE9E9+e4TSM4bekXP2mrHj5f+C/JzhybQQQWJCIGAQCAgBLwS0ZUrV6DT6bB06VK/SrRaLaqf+BoKEvrdcPgTrmdL+5k//zUmBtAjIr2Ne7agIHvAz5Av3fVtViSteRkTJ03xJTIonoju6f3fQkLO0PXuaTPjkcKvYH3JHYP0iAiBgEAgNAi8/vrr2LJlizQf61o1IyIiMli2bJnfUmhlrfK5n6JI2+xXjhKr0rNQ9P0fID09fUhZ0nvpg69jWpxuSNmqnjTkrfl9QHq5Mmrbt/b9A5Jyh56vMunM+MmSZzF5kugRcfxEKBAINQJERJs3b5Z8drmIqKqqCtRrGIqIqDKXPj0A0wvPI0fm9Muzklq2ambbeh/KHnnUM8nnc1X5XvSe/gmyUwe84nkKa/VWmCdsx7w13/ZM8vtMRPfz/b+AIaXVrxwlJujT8L0V3w2K6IZUKgQEAgIBNwS8EtHVq1fR1NSE5cuXuwl7eyDPded37YTqo72YIHPZymV1bG7IuGgpZn/t60FN+JLeK4d/h+imPZiQNpiMdIyEOpOXYdrKHwWll9fr04qDePHiHxCb5nv4Z+owYW3aJjy6qt9hE88rQoGAQCC0CJBjtPVs/jg1NXXAVSwRUWNjI1asWBFQaWSZfP6t3TCXn4Gqvg4qmxUO5nrVwpbs1SWlKLpr67DIgvRePvonWLWfIcrM9MIBh0IJsyobUZnLUTD/q8PSS40ionvt+Ov4pHU/4jIGkxGRUEnsAjy+dPhlBASeEBIICATwxhtvYOPGjZL/edfQrLq6Gg0NDQETEceR9qd1shWpHkZksYWFUMfGhmRIQ3q7OrWwtFUgOrUEak18SPQS0b39xR5UtlaiyVqPXvafsi8CmaocFKcXY2vJlmETHcdEhAIBgcDQCISUiIYubmxKENG1dbbhakctClMKEKsODYGOzdaKWgkExh4Cb775Ju68807Ess6LW4+ovr4eK1euHHs1FjUSCAgEbjoE3Ijo2rVr0hYPIiGarPa2+55O96CzxPgRPr4Qub5bxJVMR53Q/i5+bA8lkGFhWlqaS8bXDeUlH9ryvHJZWgXz527E8xgcf7rkeikf+WUilvZ18SOQ5O31LM9XXqqH5zluXJbr5c++Qm9lyetC+eT4cL3e8snL8NTB03zlo2+C2pOYOGBlz3X4ysN1egspD89PlvD8KCZyMyM/1keeV14OzytPl9/Tt0hY+NLlL7+8HNIp/0aod+3tt+GZR14XuqcjdTxlCFN/355cB00zyI9j8tTl7Rw23kZ+ThrX55mXHznlS57yeebhuiiP5++ep8nDI0eODPSImEV1H03iSpbNzNamuLhYLivdk2JqNP8wuICvivB0yucJhvwHQnK+dHjLy/VSSHXmL9+bDsovvziw8jjPe66HfgTyg/U85QIB2TMPf/aX1x9J8fw85O3jdebxPKQfB9/jx/XyPFyGh7508HRf+ehHTe0Zzg+b65aXLS+Hvjf+DuSkxPMNJ6RvgLDgeoPRwevG6yuvn5yUPHXyfDye56dnz98GxXmSC8XxS56X4vh75ekUysvz1C/PL88rz8N18d8LzyOX5zLe8vE0yu+rE0Ey9G3S4hitmtH34xqa1dbWgv6tWrWK6xKhQEAgIBAIGwK7d+/GunXr3Imorq4OtHK2evXqsBUsFAsEBAICAY6AICKOhAgFAgKBUUPgrbfewtq1a917RGzSGmTUKHpEo/ZeRMECgVsKAeoRERHRXK9rjoiIiPab3X777bcUGKKxAgGBwOggQD2iO+64QxDR6MAvShUICAQIAa9ERHZE5ApE9IjERyIQEAiMBAJERGvWrJGW8l1DMyIichdLCeISCAgEBALhRuDtt9+W5qTJINZFRJWVldIcETmzFpdAQCAgEAg3Anv27JHsFt2IiHbe09lmNHkkLoGAQEAgEG4EiIhobytt1XL1iMjcmk57FUQUbviFfoGAQIAQ8ElE58+fl9b1BUwCAYGAQCDcCAgiCjfCQr9AQCAwJAI7d+6UTpaePHmy+9BM9IiGxE4ICAQEAiFC4J133pF85CcnJw8QEfkiOnfunBiahQhkoUYgIBDwj4AgIv/4iFSBgEBgBBDwSkTNzc2oqKiQHBWNQB1EETcJAnRwZWZm5k3SGtGMkUTg3XfflU6WTklJGRiaCSIayVcwvssiL4Jkc0anMJAxGlnj5+bmIiMjY3w3TNR+RBHwSkTkKra8vFz0iEb0VYyvwsg1KH0j5EQvKipKssS///77odfrJX/nMeywzQULFvh1ETq+WixqG04EBBGFE92bVDf5Gj9x4oRkBTtt2jRERESA/BJzv9jkjP3s2bOgoRqREZ3eKS6BgD8EiIiWLFniftKr6BH5g+zWTCOH6eQgX6fT4dChQ8jLy4MmfSJaum2IVymQpFYiIUoJpVIpkRItw9JWITIDIS8OYqh2a343gbb6vffek+yI3I6cJiI6c+aMdLxHoIqE3M2BAA256Mie9vZ26RgiOiGlvLETNYZedJhtqK26AkXyBCgSJ0LBSAeKCECpYCewsLDPDrXSCZXTjDhVH1JVDqh6WuE0tGDVghJMKciXelH0sdFwTlwCAY7A+++/j4ULF0rHi7n2mgki4vDcGiEdA0RnzJH9WKO2FRf0duj64mBUxEPriAei4qBUqaCvqkBEtBpJk+cEBEyf0w6nvReGmkpoyz/GlHkLkJcYgWnxTtSdPYm8rDTp6HByD1paWors7OyA9Aqhmw8BIiIaxqenpw+smtHY/vTp06JHdPO9b7cWUa+H3AKfr2tCtUmFRkUampxpUMUwv8HKSDdZY3MNTK11SJu5FBGRKre0QB5azx1Ct7YWExZuQqQ6BvoLR6CwtCM5qg+zchJw7/ISFGSluuaZAtEpZG4eBLwSEc0DnDx5Ehs2bLh5WipaIiFAQy8in5qaGhxvNKJWmYMmRSYiNQMntHpC1WvuRkfVSSTlzUZ0wvAnnusPv83ypyFj9jJXEXZrD6x6LZxGLWZkRWN1XjwWFU0A2ZP4OgXXlVnc3DQICCK6aV7l0A2hk1kuXL6Kik4lqiMnQh+ZxeZ22DzPEJehtpINsexImVoyhKT/ZIfdhpZT+5E2YxGi41PchPucvbAZO2BhpDQj2YFZKQqsm5WLSZMmSatybsLi4aZDYO/evZg/f7770Ez0iG6u90yn9p45dwmnulSoUeXBrArc2NDWY2BzPBVIyp+LqFjfvaZAEeusvwSHpRsphbf5zNLbwwjJ0IrYjvMoS1di25pFmDp1qk95kTD+ESAiKisrk1ZXXZPV5Dif5oi2bds2/lt4C7eA5oBo8/JpnRWnUYDuIAiIw0a9IRrOJecX86gbCh1s8lp75m/ImLMCkdExfnVZ2WqbWd+EXFsdytIU2LZ5vTAD8IvY+E30SkSiRzR+XyjVnIiDCKicDcPOq6bgkjNvWA1y2Cxou3gEyQXz2MJZ8rB0eMtEE9fRielIyC3yljwozm42orexAlN7a7B9xVzJ8G2QkIgY1wh4JaLW1lbJcnbjxo3junG3YuU7Ozul3uwZNg9UrpoJY2/0sGHoaa2HSXcN6bOWDluHt4zWrna0nvucraBtZqtzzP4owIsIKerKB3iobCLWr1oOjUYTYE4hNtYR+OCDD1BSUoKsLDZvyf6S9lGFBRGN9dfmvX40F3Twi0ocZT0gXXS+d6EgYtsuHIU6JRtxmcPrUfkrSltxgPWIpkHD9AdzmdsbkGBtxtp0EzYtny92+wcD3hiWJSIiWzLy3iCIaAy/qKGqRkOx/ZU1OKGaDUvk8JfYeTmOXitaznyMrJI1zG4o9FbQxqYq9PZ0+p205nXxFppaa7FGfRX3LZsHci8qrvGNAB2wOG/ePOTn5wsiGq+vkmy+9lzSo1JVjIio0AxXultq2cqVFmnTF4YFFofNjJbyA8guXQcl2zQ7nMva1Yqp3SfxjdVzMH369OGoEHnGCAKiRzRGXsRwqtHR0YGjR4/iPa0GLYnF7Acdup5L28VjUCdnhWVYxtuqO/s54rILEJOaw6OCDvVXTyOy+RSef/xOQUZBozd2MggiGjvvIuia7Nu3D//zRQvsM+8atCUjaGWyDE6HHc0n9yGrdG1YhmW8qK6Gy7BbTUiZMo9HBR0a6s7CabMiWWHAc5tngNySiGv8IfDhhx9KQzMxWT3O3h251/jRu2wzqUWNrHm3h7T2NCTrrL+IzDkrQ6rXU1mvqYuZBxxjw7O1nkkBP2srPkHCxBlQqWMR3XQcz26ZhcLCwoDzC8GxgYAgorHxHoKqBa2O/fCdCnRnLWC72g9IRBSquSGqiJ5ZUjt7bUgtKguqXsMRbj71V6ROm8+stpOCzt6trZM24mbMXiHlpcnvOO1x/OyeUjGBHTSao5vBKxGRS4jjx49D2BGN7svxVjpZSz/90kfQZy5GVHwqOq6Ws7khZcCuObzplMf19TnReOx9JLINrvHZN24CINft7b79yilGQgmIzwluC4exuRqdzOo7beYSqJlxJL+sXW1I0R3DLx9ZLZb2OSjjIBRENA5eEq8iuWP97kv7cNmZi5iMfpKg1SdtxafS8CQU9j7ScOnSCaTPWCy56+BlhyukXo1F3xLU6pyprZF5AzglbZz1ZmxpbqvH7L4r+JeH1oJ8Z4tr7CPgk4iOHTuGTZs2jf0W3EI1/OWeo/hrjQ2J+e674KkXQD0jTXLGDfeMhkMMN/IK7BYTdGcPIvu2dYF5Aqg7jx7m1yilsJS1N8tn0cb6C7hroglPbl3lU0YkjB0EBBGNnXfhtyafMGPFZ9m8UNLMlV63RdBmUkN1OWxsnoQslmPTc/3q85XYfvkLaV9ZfM4UXyIhj286+RHSZy6GSsO8Qfq4aFsIrZBFqDRs79ucgOylbHXH8c2F6Vi3MDQbdn1UTUSHAAFBRCEAMdwqyGn9V3//ATqTZ0Od5P8AQxq2GJuYX2nmTzo2syAoQnKyoZ+u8lNpkloVkxDuZrn008oZbfWIzZjkiuM3VKeuhgtsPugcUooWBDVv5ei1QFP/OX7z4GJpDxPXKcKxh4AgorH3TgbV6Lk9x/CJNCQL3N6GNqzSEIa2asSk5jLDwXzWm/C/AZY8MbZdPIqsuavdel12mx59DiPYPDaUkRrmvzqRndYROuNJ8lHU57C5DSvtlh4Ymy+gu+Uqq/8kNnk+d0i3IYOAYxE0XzQvokaaLxIO+70hNDbiBBGNjffgsxZ/PdeAZ988gVS2RD0cy2ka0tC8j7mjCWrmppU2sdJckrflfiIvc3uTa+LYYWfkY/kMEYomxMRWM/ciathsqbBa2F421VLm23qiz3oHk2DuaGa9uKuMbGbC2tnGluQvM2+NVYhJNrAeENsEGZkOpWYlI6KB1bFg9JvqTuHvS+OweZlvZ2zB6BOyoUdAEFHoMQ2pxi+98D7aNfnQpN7Yj56GOKa2BlgNOljY5LaSbWQlj4tRcUmMUBIkh/m0EVUZGS35CbLb2tFnfgvJKWehjlG4tcnJekYd7bNh7V0OVWw+6x35dqZPPTLqStFpHk7mKlYKmeW2k8XTip/dYoalU4d25kw/fc4SqKJbEJ9Sj4w8A6LU/eX22tgRR71PweEscKtHoA9kvZ3Wdhy/2N5/gF+g+YTcyCEgiGjksA66pD9/dh5/OtKAlGmLg847VAYr8w9t6zZIO+DtFiMjBBP01RVsnmYis0+KgcJ+GEnJdYwYlGw1ixGC9O+6VnIWwzzGdHenw2SawXoshZJNE7nokC7yg83Ip48RjiIiUhrmKSJUjOQiWa+OheyfghFhRJSa9XI07IgiDTrrTiMx+wrSMquhjmVMJ7uI+JqbH2aO94dvYNnTXIV1GZ34zr2rZJrF7VhBQBDRWHkTHvUgm6EH/+MtWLKY1XGcu6N5D9GQPTYwQ8b0GfMZOR1ASuLH7Nz6PsYn7B8jHgrll0I6VBGMjBJh7r0Dqrj5cFjNbP4oSuph0XFEge6qpyGg7tSvMWlWExKzYuXFSPdWcwTa9N9gdkPD37pBzvntVz/Hr7aVoWjS8DfZDqqciAgJAoKIQgJj6JX899/K8dqZDiRNHX4vIJha0fBFV3mQEVEyEmL3IDbeHHD2Tj0jI9sGRMYsDDiPXNDe/T6cbbsQkxiJpEmDt3p06lnPy/4Y2092YwRC57ItitPixzvWyIsX92MAAUFEY+AleFaBzpl/4De70TeJzZnEDP5hesqH4tnMrJs76yqQPuUqMnMuB63S0J4Ii30zI6PgiLPXXANNxF/YYYs1bKhoQ/q0tEFla5uYryH1Drbqd2OniPQ5HVDUfIoXHl4ktn8MQnl0I7wSER3Ad+LECdx3332jW7tbtPQ/fXoWL5/QIblw/oghQKtW5vYK5M05EVRvSF7BtpZ4OCIfYHM+gR1J7ejtZhPiO5GReR5Woxn6awbkzHV3HcummaDTrYcq/k55UcO+p7mibXk9+MqGgUMeh61MZAwZAuTSpri4WDp23OUqljZWksMtscUjZDgHrIjOof+7/3ofWuboLCp+cO8gYEVBCkrHBln3o2DeNeaDKMjM18VZhwMdrRNgj/xyQEvtDssxqJx/QUpmBPNL5EDjmSbkLXRfHezQMVsgx5OIjgtuU6yvFjiZvVJGy0H85rH1Yh+aL5BGIV4Q0SiA7q/Iqtp6PPXGOcQUhvbkDH9lUlrr+YOIifsYebM6hxL1m05L7R1tM9lQivWMVL6PIHLYTYDpRaRn17Dl/36VNYfqkLdoIpvkvh7Botu02XBGf5PFhW7zqrn+NH64LBWL583y2xaROHII7N69G7Nnz0ZRUdGAz2rqER05cgSbN28euZqIkiQE/nPPAbzXmoqY9MkjikjTqT3InHQYmfm2Gy7XamZk1LEcEbFbGIF4t8B2mI8gXsMmqOMHSKf+eCMyZ2Uw+6Z+uyQiNX3HQihjH7zhOskVkK/r+biIHz+6UR4t7kcRAZ89IkFEI/9WjEYj/mnXZ2hIKvNq+RzOGjUc/TMblh1BQrr/bSCB1qGnOwZdxjvZsv7yQVnsVh2Utl1Iz6phNkYDyU3lzUjKTWRbOvp7P53tDnSb72WHMa4aEArRXcy1j/HbR1ciKWlkFgNCVO2bVo0gojH0aqurq/H03jpETgxu5elGm0DH2TV8/m+YseIa1HHDnCDyUgla1u82rWSGiKvdUu2mw0iMfRWaOBkLMQnthVZokjRIyI6T5A1tGlgjnmFzVqHfgNtVW47nbk9B2Rw2jBTXqCPglYi0Wq00Wb1169ZRr+CtVIGXP/wMrzQks2FZ3og2m5zlNxz6KeauM7B5HXdyuNGK9C/rb2TL+gskVbSB1mH8X2RPqnPNDfEy2q92MOtrJZLzkkDW1K3NbKNuwlM8OaShRd+MHemNeGSTO0mGtBChLGAEvBIRuYqlVTMxRxQwjjcsaLPZ8Oyuv6Eieh7zjNjfI7hhpQEq6DV3ofn4z1C6ic0P9W/vCjBnYGLUMzKZ5kOVsAm9lmZYdM8jfxbbg+ZxGeo72VYTO9IK2cZaaZ5pNcsTnj+GZFNUqNuPZx+/m1mQh64X6NEk8RggAoKIAgQq3GJE/v/42lF0T1gZ7qIG6bca2abTil+h+E5mtBOmy2R0wtg1GU5MhrW7DhMKWqBSuZORsaUbpg4zMmcyS2qSt3wVEeq5AdfI6bSwrSg2ti0ugk2SD94q4qkoquEQ/v3+EmHc6AnMKDwLIhoF0L0VeenSJXz7Ix1iJ83zlhzWOLO+Fl1XfotZa9z3k4W6UJu1DxER/V0ub7ZKPW0mdDV1Ibs4ixFRHzrN32NeGyf4rIaj1yD5MbJbLyJS2QFVlAl2m4UN62LQF8kOF4j1P8Ttqq3A8+tSMGPGDJ9liISRQUAQ0cjgPGQpr3x0CC/XJTCn+JOHlA21QE/rRZjrX8D0laM7RDEbLOio0WNCSTbzedQHg2EpFJqtkhM2MkTsczKisbQiQtkCOGuhVOigVrez9B6oNQpERvWTHM0vaZsWIiKOzAd894xo79l3pnVh7fIloYZU6AsSASKiOXPmICcnZ8COSMwRBYliCMSfeWkvLkTNZv59fBsBhqAYryq6Gk/Dqf8jpi4OzdK910ICiLQabWi91IbcshxJWhqeGYtZD4d5AHD0MIPLbjafo0OkSsF6Pwq/FuAdbfmwKR5m5JTqs+TeHj1WKivx9I5NPmVEwsggICei/wcAAP//QfSQVwAAHepJREFU7V13dJzVlf+NRhpppFEfNcuSce+4N7CxDcYGm7ZAMCFAAil/LEk22ewhCTmc5JzsknOSs5uyIWWz2WyyGEwzxQ0TwBQ72BjbsiTbcpWtMmqj0Wh6n733kz9pZjSaPmMFv3eO9H3fK/e97zejq/vuu0XhpwIqer0ehw4dwh133MGPoqQZAa/Xi6//7g301KxFllKV5tlGkzd1HAVMv8aUFSWjGzNY47a50d3ci7rltcOz+nx0Sz9Z2cNVMd0Y9PVwKR5Ftqp8zP5etwPzzIfw9Bc2QaXKPO5jLuwabNi3bx/mz5+PCRMmQCEY0dX5BlgsFnz9T+/AUn/LVVnAYNsnUFp/ieuWV16V+eVJ3Q4PdCe6MGlFnVyV8LW3ezb8uZ+HMrtwTBp+nxcT9Qfw4603oaioaMx+oiH9CAhGlH6Mo87Q19eHf3rpU7gmro7aNx0dTB3H4TP9F6atyEsH+ZhpepxedB7XYdLK5BlRV8cS5BQ/HHXuQt0B/PT+paioqIjaV3RIHwJvv/025s2bJySi9EEcnXJbWxu+vfMCFBOXRu+chh6mztNw6bdh1mprSqnztsrn8dO2SoGsrOikvW4f2j/twHWr6qN3jtDDafdjYPBOZBfEIGG2H8bP756JurrkmV+EJYmmKAi89dZbmDNnDurr68XWLApWaWs+d+4cvr2vC3l1i9I2RyTC5q6LcOj3YuqSc1DlKiJ1jbnNZvbBYq6CIqsYfhTA6/EgO9tCXzI9CorMNE8WbZuCyaWKEQ30V8Lp/wqyc6NLOdZLR/HsnfWYMmVK8GLEU0YRYIlo7ty5qK2tDWZEhw8fxpYtWzK6mGt1slOnTuFb75pQVD8Xlp7LwTDw+YFCAZ/biayc3OE2BdUNlyv3PpcDWaqR7ZXHYUN2XkFINwW8bheUOSPKWWvvZTjNHdDWnUFJaTsxjyHagVOEEBl+5Bvu5/P6pXF87yCJxGxdjay8jVSnlPr6/R74/V547L1U5wa8l6BUdECZ1Y/cvH6oNSQykQila9ChbtkV6STgFYMmpAevy0uMJoSTUT2vo7d3EXIKP0cLCxTDFGCdkLweGb/BS4345e3VuP7660OnEM8ZREAwogyCPdZUjY2NePKAE5raWeg/+2lwN5kReVy0xRlhHlKnoUNO+gOXDjvh97qhUOYMj/c4LEGMSG7wMa0r/Xisrb8TPpcN6pJBaNQHkZt/hQMMkZWHBUw5uoH+xqXCfMdiyoUTD9Ic+SNj/bRPY8ZwZa3c4PM6iSka6T9gN3IULdBo9Og9o0f1HFlp7h/uzgxOHsr3HreXJKohJse0uI6L1ZoHu2sDvffEoYqA34GMSMbM3nsRTywpxpe//OWAnuI20wgIRpRpxMPMd+LECXz3oJsY0cwwremvMneeg5ukp5LJM+G3/BbaqrZR26Z4VqHvoS1R/lPxDIHXeRia7G3oO90ZXUc0mg/SXH64XH70961CVsE9w2YQft+QpDbMxa6sykfSVxYprkxtJ/GLDSXStiCuBYvOKUVAMKKUwpkYsUCJKDEKyY0y687DbbeibOoC+BwHocl7CfmFgdua+OgzI/Krv0dSSuw0vJ5BeAZ3wNG2C1Nvil9Z7fWQ/VvvXPhV99CWTRvzgk2Xm/HLW0swe/bsmMeIjqlHQDCi1GMaN8WTJ0/in/dbUFg3J+6xqRhg1l0gRmQmRrSQlMq0nXP/FuWVuoRJG/oq4c7+JklVI/qpWIg5zZ3obfgLJiwshVLppK2mBXkFTuRkW0nC4a2YYpSk5iEpyOHIJ8X4RGJC9yInrzqWqYb7WNub8ItbyzFz5tWRRocXco3fCEY0Dr4ALS0t+ObbBhRNmn9VVsOnZi6LEeXTF5POhk62XK+isroh4bWYjUpYPU+SZCLremIjxcr13pMHULN4Ax3720ghbZCkKp+PdF8w0u6Lfnx22oSRQooVRgrSESm0dKkhnZA2WCcV25TwdB7Hv2+qxdSpU2McIbqlA4GwjIgN7PjUTLh4pAPy0TRbW1vx1R2XUDLt6tgRWbovwWXuR/F1M+B37EdR4btJbc0cVh+M1keQrY7vfVgq07d8gppFt4wGKaDGz4pvKvFs/QKGB91m647gZ3dMF3ZEQahk/mHnzp3S9njatGni+D7z8A/NqNPp8JUXmpA/7YaML8HrscLa1QB7/1FUTMtBUfEZ5MmnZgmuxk3bJX3fGuQU3RcXBZdlAIbzx1G98Oa4xiXTuaCTLKvvW4yqqqpkyIixSSLAElFYy2phR5QksnEMNxqN+Mr/fghMXh/HqPi7ej0m2vKY4PcM0HH9SeTk9JP+ZQAeSzucRhPqFsenX4m0gt6u6eTr9SjZK2kidQtqc5r6YbzUhKrr1wXVp/OhtOM9/MejN6OwcGyftHTOL2gPISAY0Tj4JjgcDvzjH/fBWENGgCn2vvc4+4j5kJGij47ks/qQrexGgaYf2TkKyayHXS9s/TYYO0yYsCB1jMg0kE96oq+T8rgmZoTtA92wkOK8Yu6NMY9JtmPV5d349Te20jbviiFSsgTF+IQQEIwoIdhSO4htWv7lf3bjomYJ6VVS95/ZZTkGlXI//bfXISeX7WbCr9tudMDQOoDaRbEzjfCURmpdDrLpGaBTLM1NI5VR7mz6Ttj62qGdvTJKz9Q0e+wmLHcfx1OPiHA3qUE0cSpjet+LrVnioCYy8qevvo8PjFVQa0dbBCdCz2W7hPyc/0NJmSHqcKfZhT6yaJ64ZAJpgEd3Z50PlxxVmMbR3aUa4q3o7ZoHZeFjMSuV2b3FOdiH8hnxKbnHWELUaodBh6/W9eDuDbEzy6hERYeEEGBGxG42NTU1I8pqPjU7cuQINm/enBBRMSh+BLZ/1IQ/HjPRyVXyPk983O027UJN7YdjSkGBK+SAZD2nejFh0QTaGo4wG3bbsAz6YHXcQfxJB03BcTpNi82TnukP6EvhVHyDgpOVBk435v2QhTcbVi4cs08qG5SGFvxqc71QVKcS1ARpCUaUIHCpHqbr6cVDf/gE2vlrkybNeiEVXkCZtjUmWhwHqLupGzULaki5PLJ/YyZksn8NqoK5Eh2XpQlF+f8NTfFIn0gT2C10jG/ZipyC2E4DB9tOk3mQHyWTMmPYWWs4hCc3zpE8viO9h2hLPwKCEaUf45hmcLvdePw3u2CpXU3MYMSDPqbBIZ3ctnZy0/gzCov7Q1rCP/q8PnQe7UL19VWkXB7yaLcyE7JQcLGiR4MGeS0voLj4cExH/BwXyGhcAqXmkSAaYz0YLjQgR61B4YRpY3VJaf28vn34wRfvptPDEUfhlE4giMWMgGBEMUOV/o4/e2U/3jdVQ12enJ7IZbuMkoI/IF8Te6Cz9iOdqJxdgVzNkId/j46svNX3kUtFcdCL+7w2wP47aCvaY4ojre+phlf1BNGJfozPxozq8hoUVNQFzZmOB+dgDx7WXsbWzZGNJ9Mxt6A5GgEOjLZw4UJUV1cLHdFoeDJbc+DEGfzoHV3SFtYsERXl/xwFhUNK5ljeoquxG8W1Rcgvz4dRnw+b+/NQaeaFHeqxf4JC9UtEn5RIUQoHSDM7Hocyb0GUnqTcbv4IRRNnIq8kPteQqITDdMjrb8ZTK4ulqIBhmkVVhhEQjCjDgEeazmq14ovP7oZ/xqaYT5rC0XM7upGv/D2Ky8g3K8bCp2a5hbnQVBfSaddCCqVxHymuw0sxPp8DPsufUFl1NqpUxCduBsMNUBY8EHElrBvqObFfOjHLyU9/IPsp+v34/r1rUFoamyI94uJFY9IICEaUNISpJfCDbe+gwVlHWxQ6Sk+weFxGKD3bUVF1JmYKhkvsUOqHsnQabK5HkJM/KeJYj/0UClTbUFhCW7Uopa+rDr5ckopySsbs6aVgbX3NB1AxZxWUKvWY/VLR4DT14oGiC3jk7o2pICdopAABwYhSAGIqSXzcfB4/2ncJhdNWJEzW53PBa34TNRMPxkzD3G3BQKcVOTWPIVtzS1SJjEO/es3PQVvZIFlpR5posF8Fm+8JUoTXj9nN47CSw+thVNKpYZaSvOrTWAr6G/C9VVoRgyiNGMdLmhnRokWLJFOK4bxmwo4oXhhT15+TLT7x7A50V6+hMBrxxfMJXIXTch7FmhehKdQHVoe9Z2d2g84PXUshqpY9RbZHsUkkbnsrGU3+BcWlkbeAbGVtGLiNGNxtYefnykz5mfk8TswxHsAPHtoEtTq29xxz0aIhZQjs3bsXixcPOR8LRpQyWJMj9PpHR/HbE24KlDZkv5MINfaq91r2oLTsMNQFo5XKHNHQQzHsrdZ6CnZfBa9/JgznOlG7/K6Yp+NwHB7zi6QrogSNo+PYB9Hp0c2GouBLxORC4m5f6WUl1w57fxe0s5YHjUv1g0V3Ft+Y48aWtZlxI0n1+j+r9AQjGoef7ODgIL7153dhosyvycTc4SBnHsd5KLwnKeKhi96Uraa98HopqH0WhVOlgGJZykrKDlJCVxU6j+xF9YL1pKOJ3Y7Jbe+UXEmKS3siImk0VMLueYzshMI71g4ZM3rJmDH8SV1E4jE2+n0elOk+wE+2roZWS+8vyrhBICwj6u3txdGjR3H77bePm4Veawv5464P8UpnMQqqpyT96j6vi1LpECNS8HF+FimNacsX5mR/6Ph8Bh2fxx6bh0/QvJY3UVXzcUR3ErOR8pw5HiQr61Vh34ezl+QWV0BTFVlJHnZwjJUWis39wCQLHt+8JsYRolumEBCMKFNIxzlPT08PvvvyIVjqbo5zZOLd+04elJxu88nx1uukrR3lSfPR/s1H+zhOVeQnT1bp50qERHkmr7MbatVbKCrRk2SVRUf6WXAMUo41uuaXqSmUK7mEUJiN7o75UFc+RvWjt2c9jftRQn52uUXlMtmUXpkZa1ka+vxalJenZ46ULvgaI8aMaMmSJaisrBwxaBQS0fj4Fmzb9xGeay1AQc30tCyIY0Q7zQa4bUYKv9FBCmM93FYTNDVTpPxoSnJ94C2bghRA/COdZlFmjqHtIm/zhsQqn9dBwdXepz/w47T5ozpiOpY+i7RmlTqHmBflJ6OfgX4tvFlriZaGaBE9YkhZ2UQ7KxsDFxukEzNVQQlJTUW0hUtdOBReiEN3El+brcBd6xI/jZReSPxKCwKCEaUF1tQQHRgYwNPPvwtd9Tr6gx3J8posdSsxHRtld3VZB5FH2yGOgcQSA5/SWXouRY0ZHW5+tuZW57xMYUfawzVLdVZLAQYtlAo6r44kLNeQtEUSl4NCf/SfOYKyaQuJKZopowgxMZK6VJoy5JVSaBSyqVJmJ+4P5rYaMdV0GP/66Gbk55N+TJRxh8CePXuwdOlSIRGNu0/myoLeO3wMv/qUUvxMXJT0ElniMbWfIaZDyRxrppFPV7BPGxsVdh/7K52cbYl7LrZd8pjfoRO0tyPaFek6N0FVFHyMb+1tg93QHXRi5nXZYR/ohYOiNjqMPVCXTZAktdzCsvjXdvljPH1LPRbNnRX3WDEgMwgIRpQZnBOehe2KfviXPWgA+WCVJR5BkVMGDVIywWI6lSqkrddYpev4O9DOXE6W1fG7WbBrSbZvN1l0N49FHt26BVCo/yHImdZw4QRJY2ryM5sRdpzX7YSVgqZZelrJDaUcxfVzSKqKTbKxdp/HhnIDvnO/cG4NC+44qWRGtGzZMlRUVIzoiFhReuzYMXFqNk4+pI6ODjz56lE46hKLaT3Y1iLlt9fOXBaVwbAHPG+HEj29cpqPo7hwJxlSDoRFb0A/EQ7/Q0GxrHsa3ycGOVfaJoYdFFBpvHwKgxRgv3zmCvKLuy6gZfSt20rhb/Uf498e2Sh8ykbDM65qtm/fLllWc6LLYYPGS5cuoaGhAffcc8+4Wuy1vJg9B47i9w1m5NQtiQuGQdqK2fs7UTFvTUx6lmSjJHrdZvhseyhB46GwRo4OWx4MJg62Nll6Dx9JfLpP96J22e2ktI7NtWPICruRpKJClExZMOZ7qdoP4OmN0zF7RmbiG8X1wYjOQQjs3r0by5cvFxJRECrj8MHj8eDZ19/DW3ptzKdonDix79RB1K+5n2yHYlN28ynaAAUoSya3mMdBxo2uPSivODEqzjVbdPfq76eTsaFMHXZDFzjldeW81XGjzqmHrL1DwfZDdUe2tmN4bG4ePnezOCWLG9irMEAwoqsAeqJTmkwmPPPy+2hSzKCTpNqIZDgjxsDFE1JGjNA/0kgD2W1D9+k+srBel5QXvJTGyL4P5VoyVFSPxMF2OTm7xxeIES2TlsHMRJGVQ3qfxBTJHHCfdV9l0xaTQntIh2buaMHaciO+v3UDWRKMzB3pvUXb1UWAGdGKFSski/fhrVlnZ6ekI7rzzjuv7urE7KMQYP3dd7Z/jMGy+WT8Fz6AmJksiNllgrNhyH+cowhFqGAv+LzS6oT1RDJpKaGj7QPk5Z6msLU66TTNPKilQGmPQJU/5Inf3fAeSilYfjzMUqYvXwdaG8GMt5LyofFR/QzvOfzrFzZAowkfT0keJ67jB4GwjKi7u1vSEd12W/Ax6/hZ9rW9kra2Nnx/x1GYKxZLtjaBaLA1dO/JAxRpsZakjNmBTTHfm7ta4aKj/nJSbqeiuB2dULg+IhcQMnz0aaFUk7RFGWBdxDTYtaNm0Yakp2FdmLXnIuZWZeOZrWskXUPSRAWBjCEgGFHGoE7tRK2trfjxruPQly0lZjQSZbDzk90oqJqcVCYMjg3Ud/oQWTqzgnu0O0aib+J1D5JhZuEVy2yAT8DIspFcO+YnSnJ4HMegth78M/7zmw9i7tzEoxYMExQ3GUUgrI6oq6sLjY2N2LRpU0YXIyaLD4GLFy/iJ7sb0FO6EKrCCvQ0fSBZR6ciQWFv84eS0WN+EpEio72NtC2bwv5l2mhdI7azwWNBfxO+NDsPkydPxqxZiembIk4iGtOKQFiJSDCitGKeUuKXL1/GD187gg5UknuEDVoKtZpM6BB5cXySxcfk6YoPxG4dxtampE7neK1smlBmPYtn7llEW78ssFvMvHnpCyUi4yOuqUUgLCPS6XRobm7Gxo0bUzuboJYWBPgfxzOv/Q1n/fUonJgaacDjtEFP2zPtrBVkr0NhQ1JcDOeOSj5uY1lTxzKdtfsibiigtNEbFklpaOx2OxwOhzBejAW8cdZHMKJx9oEkuhwOpvaHtw7hgKEA2ROip+6JZZ7+c8ckJlRcNzOW7jH3YZcN3pYlaiLAAc4cuhbcVT2IB8hOSGTiiBn6cdtRMKJx+9HEvzBOybPrg8PY0WKEoXgeuXMUx08kYAQbNxrOH0PV9euHQoAEtCVzyydcXocFZdPjsxLnOT0UJ6l48CTunaLChpWLUVCQemktmXcTYxNDYNeuXVi5cuVoO6JTp07h1ltvTYyqGHVVETh79ix+89cGdGhom1Yy5EqR6ILkYGmJ+p6FzuulsB9y/rJ4bYdYHzTVcxZfWjEZC+bNofC3sbmEhK5BPI8/BJgRrVq1SgpaF2TQKBjR+Puw4llRf38/9h85jg96stGeN5O2WIkZ99n6dRQ6pCVppbK8dvZlY0mLdU+xFs68oTacwvJCMz530yJMmJB4zrdY5xT9MotAWEbE3t4tLS3YsCF5Q7PMvo6YLRQB/ofy4sFmnFRS6I/yxHQ9vZT4MJ/y0ScrFXG8o97GDyRLag7IFkuxdp3HLP9FPLxqKq4n+6AcihopymcPAcGIPnuf6ag3Yh+1jxua8OEFAy7nToGjYOxEh6MGUwXb6QxcbETN4uS26ux2wsaS0eycWNdl17ehwtmK9ZOLcdfKeSgriz8gWrh3EXXjE4GwjKi9vR1nzpwREtH4/MwSXhW77pymz/XjDhtasyfCkFsfs80RH7dnUSrokklzEprfbTNJmVy1s1eOGY9aCoDWdQ51WXqsnJiPO5bPQU1N4sHgElqoGHRVENi5cyduvPFG6R/OsI6IGdG5c+dw882ZyyBxVd7+Gp2UGdL58+fxtwt6tOdUo81fgxyKDx2psCTTQ9sqZiTxKplZwtGf+puULijUbojD1rrN/ZJh4tS8QayZUoYNC6dLdkGR1iPaPlsIhGVE7FTJX1TBiD5bH3bo2/CWTfqs2zpxftCLbmU5OqGFU1kcNlg/O8Pa+i6RD9q6uMJrGClMh8dmQTllcWWrbzaWZKda12AvqrJNmFWhxtrZE7F4er3wmA/9kK6R57CMiN0GLly4IBjRNfIlYImFT9k4xAinkjrZQ06vXhVaXUUw+DTkLV8kbcuylDkYaG2Wcp5VzLkhKjpseGi83ARL50UU1c2AjyIDKF0mVKj9mFJdivWzJmDZtBoUFhZGpSU6fLYRGJMRsUPl+vXrP9tvL94uLALsJsGW2gaDAV39RrR0D6Jt0A2d1YM+ezb6OlrB9kAcZiRbzQaFFHyMky96OQEjJWSkNqXfBQeF5chymTF/0VLMm1yDuTWlWDiJIkySEWI25TMTRSAgI8CMaPXq1ZKV/LCOiGNWc5gJwYhkmMTV7SZdDv04nZRRw+lCQ1Mz6REvoKyyGtX1U+ElaUmtykGhyg+v2Yjerk7pS8WZGXJzcwWAAoGICLz55ptYs2bNaEbEzGjdunURB4vGaxsBs9ks/cPiLZ3VapW833mbp9Vqcd1116G2NnI422sbPfH2gQgIRhSIhrhPGAHOv+aj7ZkwOEwYwmt64Msvv4wbbrhB+uc1vDXjbRkrrIVEdE1/N8TLCwQyhgBLRDfddBNKSkpG8podPXoU7OZx9913Z2whYiKBgEDg2kXgjTfewNq1a4MZEZ+YsVEjN4giEBAICATSjQAzIt6BFRcXj0hEbEPEKYVYVBJFICAQEAikG4ExGRGHi+XjNFEEAgIBgUC6EXj99dclc6EgiYjdOzgOsmBE6YZf0BcICAQYAWZE7FJWVFQ0sjVjRsSOkWzpKIpAQCAgEEg3Aq+88oqkI2IbtOHje/a8ZyM1wYjSDb+gLxAQCDACr732mhR2iP0OhxkRxzzu6+uT4oMImAQCAgGBQLoR2LFjh5S+TKPRBDMivV4vWTqmewGCvkBAICAQYEbEmaXZIXpYIuLojBwWgk2uRREICAQEAulG4NVXX8Vtt902mhFxCAhO7yGKQEAgIBBINwKsrN68eTPy8/NHJKLTp09L8Wg44ZkoAgGBgEAg3QgwI9qyZQvUarVgROkGW9AXCAgEwiPw0ksv4a677kJeXl4wI+J4xitWxJ4ELzx5USsQEAgIBKIjwIyInew5iN6wspqT8nHQK8GIogMoeggEBALJIyAYUfIYCgoCAYFAkgi8+OKLuPfee6XAesMSUXNzM+x2OzjesCgCAYGAQCDdCGzfvh333XefYETpBlrQFwgIBMZGgBnR/fffL2V3CZKIOKXM0qVLxx4pWgQCAgGBQIoQeOGFF/DAAw9AqVSOKKubmpqktDGCEaUIZUFGICAQiIjA888/j61btwYzosbGRimH1ZIlSyIOFo0CAYGAQCAVCDAjevDBB6WUVMNbsxMnToDTwyxevDgVcwgaAgGBgEAgIgLbtm3DQw89BIVCMbI1E4woImaiUSAgEEgxAs899xwefvhhiaqQiFIMriAnEBAIxIZAWEbU0NAghQGZP3/+kKhE4lJWVpZEMfDKYhQXrpNEKharQvrK9dxP7i9fuU4UgYBAYPwhwKnD5cIZfLnIV26T2+U6+RrYT66Tr2ON4/a9e/fi8ccfl+YZlog4cP57772HsrIyaUKZQDxXpsj95UWEMh+u56M6LoHMKtyzzPzCtYWODezL/SM9y2uQ1zbWNdy8oXXy2NB6fuYitwde3W53UIpmuW1oxOjfybaPpjiyLrmNzTbY8fBqFP6+hCtWq1WKUyO3hfaTn+XrWP24nvsE9gu8l8fJ31n5WR4XeA28t9lsktd4YB3fcwmdL9a6WMbJaw+9hs7B+l7+OwjtJ88RWC/fMw258PdO/uG6cPfydzPWNvnvkvvznLW1tViwYIE05TAjkheQyqv80kyT7/mPUGZEoW38LPfja+AXI1rfwPZoYz0eT9AaAucMpRPtOdxcofT4WS5Mz+VyBTGiwDb5PvTK46KVWPqEo8HjMs2I5C9wuPXIdaGMSB4jX7lf4L08Tq4Lvcrt8ji5Xa4PfJbv5Wu4Mbw+DnEqt4XSCR0b2E9u46t8L4+X/1jH6h+tn0yPv+cqlUrqHjiPTD9cXeCc8jyZuqaVEWXqJcQ8AgGBwN83AoIR/X1/fmL1AoHPBAL/D2QoAJWiv4/VAAAAAElFTkSuQmCC;" vertex="1" parent="1">
          <mxGeometry x="1160" y="230" width="290" height="176" as="geometry" />
        </mxCell>
        <mxCell id="pK6xOEjmNQUOr7NdrkoV-2" value="Client" style="rounded=0;whiteSpace=wrap;html=1;" vertex="1" parent="1">
          <mxGeometry x="1245" y="380" width="120" height="60" as="geometry" />
        </mxCell>
        <mxCell id="pK6xOEjmNQUOr7NdrkoV-5" value="" style="rounded=1;whiteSpace=wrap;html=1;fillColor=#FFC4C6;" vertex="1" parent="1">
          <mxGeometry x="1085" y="705" width="135" height="510" as="geometry" />
        </mxCell>
        <mxCell id="pK6xOEjmNQUOr7NdrkoV-6" value="Get tracks data" style="rounded=0;whiteSpace=wrap;html=1;" vertex="1" parent="1">
          <mxGeometry x="1092.5" y="715" width="120" height="60" as="geometry" />
        </mxCell>
        <mxCell id="pK6xOEjmNQUOr7NdrkoV-8" value="Actor" style="shape=umlActor;verticalLabelPosition=bottom;verticalAlign=top;html=1;outlineConnect=0;" vertex="1" parent="1">
          <mxGeometry x="1490" y="956.41" width="30" height="60" as="geometry" />
        </mxCell>
        <mxCell id="pK6xOEjmNQUOr7NdrkoV-9" value="" style="shape=cylinder3;whiteSpace=wrap;html=1;boundedLbl=1;backgroundOutline=1;size=15;" vertex="1" parent="1">
          <mxGeometry x="1120" y="895" width="60" height="80" as="geometry" />
        </mxCell>
        <mxCell id="pK6xOEjmNQUOr7NdrkoV-10" value="&lt;div&gt;Tracks Table&lt;/div&gt;" style="text;html=1;align=center;verticalAlign=middle;resizable=0;points=[];autosize=1;strokeColor=none;fillColor=none;" vertex="1" parent="1">
          <mxGeometry x="1105" y="990" width="90" height="30" as="geometry" />
        </mxCell>
        <mxCell id="pK6xOEjmNQUOr7NdrkoV-11" value="" style="shape=image;verticalLabelPosition=bottom;labelBackgroundColor=default;verticalAlign=top;aspect=fixed;imageAspect=0;image=https://upload.wikimedia.org/wikipedia/commons/thumb/2/29/Postgresql_elephant.svg/800px-Postgresql_elephant.svg.png;" vertex="1" parent="1">
          <mxGeometry x="1160" y="944.8399999999999" width="50" height="51.57" as="geometry" />
        </mxCell>
        <mxCell id="pK6xOEjmNQUOr7NdrkoV-12" value="" style="triangle;whiteSpace=wrap;html=1;" vertex="1" parent="1">
          <mxGeometry x="1385" y="930" width="60" height="80" as="geometry" />
        </mxCell>
        <mxCell id="pK6xOEjmNQUOr7NdrkoV-13" value="Send ecommendation&lt;div&gt;result&lt;/div&gt;" style="rounded=1;whiteSpace=wrap;html=1;" vertex="1" parent="1">
          <mxGeometry x="1265" y="956.41" width="120" height="30" as="geometry" />
        </mxCell>
        <mxCell id="pK6xOEjmNQUOr7NdrkoV-14" value="" style="shape=image;verticalLabelPosition=bottom;labelBackgroundColor=default;verticalAlign=top;aspect=fixed;imageAspect=0;image=data:image/png,iVBORw0KGgoAAAANSUhEUgAAASIAAACwCAYAAACrZ2NKAAAKrWlDQ1BJQ0MgUHJvZmlsZQAASImVlwdQU+kWgP97bzoJLSEUKaE3QToBpITQAihIB1EJSYBQQgwEFTuyuAIriogIKIKuiii4FkAWG6JYUWxgXZBFQVkXCzZU3gWGsLtv3nvzzsyZ891zz3/+c/65/8y5AFAUuWJxKqwIQJooUxLi68mIio5h4AcBAlQBDhABicvLELOCgwMBKtP27/LhPoAm7B2LiVz//v6/ihJfkMEDAApGOZ6fwUtD+QSqL3liSSYAyB7Ur78sUzzB7SjTJGiBKPdMcOIUD09w/CRjwGRMWAgbZRoABDKXK0kEgMxA/YwsXiKah+yBspWILxShLEbZLS0tnY/yUZRN0BjUR57Iz4z/S57Ev+WMl+XkchNlPNXLpBC8hBniVO6K//M4/rekpUqn9zBClZwk8QtBrTJ6Zj0p6QEyFsXPD5pmIX8yfpKTpH7h08zLYMdMM5/rFSBbmzo/cJoThD4cWZ5MTtg0CzK8Q6dZkh4i2ytBwmZNM1cys680JVzmTxJwZPmzk8IipzlLGDF/mjNSQgNmYtgyv0QaIqtfIPL1nNnXR9Z7WsZf+hVyZGszk8L8ZL1zZ+oXiFgzOTOiZLXxBV7eMzHhsnhxpqdsL3FqsCxekOor82dkhcrWZqIf5MzaYNkZJnP9g6cZsEE6SEVVAhggEH3yAiBTsDxzohF2uniFRJiYlMlgoTdMwOCIeJazGTZWNnYATNzXqc/hHX3yHkL0qzO+DWjvrpvHx8dbZ3wBKwE4NgoA6caMz4QCgMJqAC7v40klWVO+ybuEBSSgAGhAHWgDfWACLIANcAAuwAN4A38QBMJANFgMeCAJpKGVLwOrwHqQBwrAFrAdlIMqsBccBEfAMdAEWsF5cAlcA7fAPfAI9IIB8AqMgA9gDIIgPESBqJA6pAMZQuaQDcSE3CBvKBAKgaKhOCgREkFSaBW0ASqAiqFyqBqqhX6BTkHnoStQF/QA6oOGoLfQFxiByTAN1oKN4DkwE2bBAXAYvAhOhJfC2XAuvBkug2vgw3AjfB6+Bt+De+FX8CgCEDmEjugiFggTYSNBSAySgEiQNUg+UorUIPVIC9KB3EF6kWHkMwaHoWIYGAuMC8YPE47hYZZi1mAKMeWYg5hGTDvmDqYPM4L5jqVgNbHmWGcsBxuFTcQuw+ZhS7H7sSexF7H3sAPYDzgcjo4zxjni/HDRuGTcSlwhbheuAXcO14Xrx43i8Xh1vDneFR+E5+Iz8Xn4nfjD+LP42/gB/CeCHEGHYEPwIcQQRIQcQinhEOEM4TbhBWGMqEg0JDoTg4h84gpiEXEfsYV4kzhAHCMpkYxJrqQwUjJpPamMVE+6SHpMeicnJ6cn5yS3QE4ot06uTO6o3GW5PrnPZGWyGZlNjiVLyZvJB8jnyA/I7ygUihHFgxJDyaRsptRSLlCeUj7JU+Ut5TnyfPm18hXyjfK35V8rEBUMFVgKixWyFUoVjivcVBhWJCoaKbIVuYprFCsUTyl2K44qUZWslYKU0pQKlQ4pXVEaVMYrGyl7K/OVc5X3Kl9Q7qciVH0qm8qjbqDuo16kDtBwNGMah5ZMK6AdoXXSRlSUVexUIlSWq1SonFbppSN0IzqHnkovoh+j36d/UdVSZakKVDep1qveVv2oNkvNQ02glq/WoHZP7Ys6Q91bPUV9q3qT+hMNjIaZxgKNZRq7NS5qDM+izXKZxZuVP+vYrIeasKaZZojmSs29mtc1R7W0tXy1xFo7tS5oDWvTtT20k7VLtM9oD+lQddx0hDolOmd1XjJUGCxGKqOM0c4Y0dXU9dOV6lbrduqO6Rnrhevl6DXoPdEn6TP1E/RL9Nv0Rwx0DOYZrDKoM3hoSDRkGiYZ7jDsMPxoZGwUabTRqMlo0FjNmGOcbVxn/NiEYuJustSkxuSuKc6UaZpiusv0lhlsZm+WZFZhdtMcNncwF5rvMu+ajZ3tNFs0u2Z2twXZgmWRZVFn0WdJtwy0zLFssnw9x2BOzJytczrmfLeyt0q12mf1yFrZ2t86x7rF+q2NmQ3PpsLmri3F1sd2rW2z7Rs7czuB3W67Hnuq/Tz7jfZt9t8cHB0kDvUOQ44GjnGOlY7dTBozmFnIvOyEdfJ0WuvU6vTZ2cE50/mY858uFi4pLodcBucazxXM3Te331XPleta7drrxnCLc9vj1uuu6851r3F/5qHvwffY7/GCZcpKZh1mvfa08pR4nvT8yHZmr2af80K8fL3yvTq9lb3Dvcu9n/ro+ST61PmM+Nr7rvQ954f1C/Db6tfN0eLwOLWcEX9H/9X+7QHkgNCA8oBngWaBksCWefA8/3nb5j2ebzhfNL8pCARxgrYFPQk2Dl4a/OsC3ILgBRULnodYh6wK6Qilhi4JPRT6IcwzrCjsUbhJuDS8LUIhIjaiNuJjpFdkcWRv1Jyo1VHXojWihdHNMfiYiJj9MaMLvRduXzgQax+bF3t/kfGi5YuuLNZYnLr49BKFJdwlx+OwcZFxh+K+coO4NdzReE58ZfwIj83bwXvF9+CX8IcEroJiwYsE14TihMFE18RtiUNJ7kmlScNCtrBc+CbZL7kq+WNKUMqBlPHUyNSGNEJaXNopkbIoRdSerp2+PL1LbC7OE/cudV66femIJECyPwPKWJTRnElDB6PrUhPpD9K+LLesiqxPyyKWHV+utFy0/PoKsxWbVrzI9sn+eSVmJW9l2yrdVetX9a1mra5eA62JX9O2Vn9t7tqBdb7rDq4nrU9ZfyPHKqc45/2GyA0tuVq563L7f/D9oS5PPk+S173RZWPVj5gfhT92brLdtHPT93x+/tUCq4LSgq+FvMKrP1n/VPbT+OaEzZ1FDkW7t+C2iLbc3+q+9WCxUnF2cf+2edsaSxgl+SXvty/ZfqXUrrRqB2mHdEdvWWBZ806DnVt2fi1PKr9X4VnRUKlZuany4y7+rtu7PXbXV2lVFVR92SPc01PtW91YY1RTuhe3N2vv830R+zp+Zv5cu19jf8H+bwdEB3oPhhxsr3WsrT2keaioDq6T1g0djj1864jXkeZ6i/rqBnpDwVFwVHr05S9xv9w/FnCs7TjzeP0JwxOVJ6kn8xuhxhWNI01JTb3N0c1dp/xPtbW4tJz81fLXA626rRWnVU4XnSGdyT0zfjb77Og58bnh84nn+9uWtD26EHXhbvuC9s6LARcvX/K5dKGD1XH2suvl1ivOV05dZV5tuuZwrfG6/fWTN+xvnOx06Gy86Xiz+ZbTrZauuV1nbrvfPn/H686lu5y71+7Nv9d1P/x+T3dsd28Pv2fwQeqDNw+zHo49WvcY+zj/ieKT0qeaT2t+M/2todeh93SfV9/1Z6HPHvXz+l/9nvH714Hc55TnpS90XtQO2gy2DvkM3Xq58OXAK/GrseG8P5T+qHxt8vrEnx5/Xh+JGhl4I3kz/rbwnfq7A+/t3reNBo8+/ZD2Yexj/if1Twc/Mz93fIn88mJs2Vf817Jvpt9avgd8fzyeNj4u5kq4k6MAgiqckADA2wMAUKIBoN5C54eFU/P0pEBT/wCTBP4TT83ck+IAQD1qJsYi9jkAjqJqtA4AeQ8AJkaiMA8A29rKdHr2nZzTJwSH/rHs8ZqgB9vio8A/ZGqG/0vd/7RgIqsd+Kf9F9nyBpaPuw7SAAAAimVYSWZNTQAqAAAACAAEARoABQAAAAEAAAA+ARsABQAAAAEAAABGASgAAwAAAAEAAgAAh2kABAAAAAEAAABOAAAAAAAAAJAAAAABAAAAkAAAAAEAA5KGAAcAAAASAAAAeKACAAQAAAABAAABIqADAAQAAAABAAAAsAAAAABBU0NJSQAAAFNjcmVlbnNob3SbpBXUAAAACXBIWXMAABYlAAAWJQFJUiTwAAAB1mlUWHRYTUw6Y29tLmFkb2JlLnhtcAAAAAAAPHg6eG1wbWV0YSB4bWxuczp4PSJhZG9iZTpuczptZXRhLyIgeDp4bXB0az0iWE1QIENvcmUgNi4wLjAiPgogICA8cmRmOlJERiB4bWxuczpyZGY9Imh0dHA6Ly93d3cudzMub3JnLzE5OTkvMDIvMjItcmRmLXN5bnRheC1ucyMiPgogICAgICA8cmRmOkRlc2NyaXB0aW9uIHJkZjphYm91dD0iIgogICAgICAgICAgICB4bWxuczpleGlmPSJodHRwOi8vbnMuYWRvYmUuY29tL2V4aWYvMS4wLyI+CiAgICAgICAgIDxleGlmOlBpeGVsWURpbWVuc2lvbj4xNzY8L2V4aWY6UGl4ZWxZRGltZW5zaW9uPgogICAgICAgICA8ZXhpZjpQaXhlbFhEaW1lbnNpb24+MjkwPC9leGlmOlBpeGVsWERpbWVuc2lvbj4KICAgICAgICAgPGV4aWY6VXNlckNvbW1lbnQ+U2NyZWVuc2hvdDwvZXhpZjpVc2VyQ29tbWVudD4KICAgICAgPC9yZGY6RGVzY3JpcHRpb24+CiAgIDwvcmRmOlJERj4KPC94OnhtcG1ldGE+CjdzdU0AAAAcaURPVAAAAAIAAAAAAAAAWAAAACgAAABYAAAAWAAAHfONO6zcAAAdv0lEQVR4AexdB3Rbx5W9AAkSYO9NlChSItUpkaZ6tyzJaparJLfEiXMS7zrrJM7mxNlNsuckjjdlk13nxJvsxmfj3TiW3GTLRbYcxZZlq1uFpLooFrECLAAJEo0AuPM+NeAHCIAABbBI833k+X/mzZuZ+z8up7x5o+hjF8QlEBAICARGEQGFnIhOnz4tVYW4yZOfPON4umc8KXA6na4myeUokj/ze5vNBpVK5ZKnG3l+nsDzUWgymRATE8OTXDq5jCtBdiNPo3sqQ6lUuiTk6TySx/GQx8tDeZr8nmSsViuioqLk4vDWXjeB6w+eurzJUFwgcp4y8rbL732V4Rnvqc8zPdBnu90+6N3zvMOpl0Kh4Nn9hoHK0ftTq9UuXb7qRPr86QwknQrxpoPH0XdD3xJ/5pWSP8vv5ene4uXlydPl91ymt7fX9R3zdArl91yWQv674une4iiN5ObOnUvJcBHRmTNncPHiRUyfPl0qQK5ErkjKdP2FcxlfoWc+nlcuTy87Ojra1ShPGXqmS57HaDQiPj7eLV4uIyXI/kd5eX4eTT+CyMhI6dFbOpfj+XjI4ymUx8nveZrZbIZGo3FlIRmLxeL2cbsSPfTJ4/m9Zxk8nof+0uVpDocDERERUjY5DlyPPJTnk8eH4p6woHfv7fKsV6DkF6ictzI94+g7i4uLc0UTbvxHxiN5eTzk8Tzk8Tz0jOfPPCQ5T1lKk2PF0ymk9yN/5np4SGk8ncdRGEw8/+PJ9fCQiJnr8gy5jDyke/5Mefft24dnnnlG0uEiovLychDQpaWlUoL4n0BAICAQCBcCREivvPIKHn74YakIFxFVVFSA/goJIgoX9EKvQEAgwBHgRPTQQw9JvTo3IqKx4G233cZlRSgQEAgIBMKCABHRzp078eCDD7oT0dmzZ6VxaFlZWVgKFkoFAgIBgQBHgBPRjh07pHk3V4+IiIgmV+fPn89lRSgQEAgIBMKCABHRrl27sH37dnciOnfunLQsLogoLLgLpQIBgYAMAU5E27Ztk1ZwXT0iIqKenh4sWLBAJi5uBQICAYFA6BEgInr11VfxwAMPuBPRhQsX0NXVhYULFwZVKtk3dHd3SytulJEMwJKSkoLS4U04XHq9lSXiBAICgZFFgBPR/fffL9nzuXpERESdnZ1YtGhRQDWipf6qw4fQ/snHcJ4+iWilAmTeZJtSiMzNdyGn9DaX0WFACq8Lkd7qs/thuPomoDuDaJWSWUH3wRY3GamzHkNmwfJh6fWsgyA6T0TEs0Bg5BAgInrttddw7733Stb1LiIiq2qDwRAQERFZVL75Bqxvv4n8KPftGdSUZjbpbV27AXMf/ZJPK2JvTSa9Fw6/CHvV/yE/3X1rhKS33QJT9l2YtfLpoPTKy6IyDp8/ggPVB3BOXw5lpJJZewJ5MQXYWLQRpfklISE6eZniXiAgEHBHwC8R6fV6LF682D2Hl6eLBz+F4fe/80pCXLyR7QfDfdtRuuNBHjVkeLn8Q/Sc/IlXEuKZG9sscEx5DMUrnuBRAYdEQm8cewsf1L0LTdZgoutu7cGq1DvwyLKHh010AVdGCAoEbnEEqEd099139++hY8wk7b6/dOkS2tvbsWTJEr/w0BL/qV/+HFOrr/iVo8SqnImY84N/RkJCwpCypLdy71Moihpa7xVTDqZt+ENAeuUFH6z8DC9W/BEx2YNJiMt163qwJfcebF+2jUeJUCAgEAgDAjRZfc8997gT0eXLl9HW1jYkEZHMhce/jKKkxCGrVu9wIvun/4oJ+flDypLe6tc3oCg3dkjZ+g47Ute8hJzcqUPKcgEiul999Gs0xdfyKJ9hiiETz9zx/aCJzqdCkSAQEAgMQoB6RFu3bu3f9M57REePHpV6RJs2bRqUQR7R0tKCa09+HXmyXcnydPk9zRVFPf4EZq5fL4/2ek96te9tRV7mwG51r4IssqXDAsWs72Ja2QO+RAbFE9E9+e4TSM4bekXP2mrHj5f+C/JzhybQQQWJCIGAQCAgBLwS0ZUrV6DT6bB06VK/SrRaLaqf+BoKEvrdcPgTrmdL+5k//zUmBtAjIr2Ne7agIHvAz5Av3fVtViSteRkTJ03xJTIonoju6f3fQkLO0PXuaTPjkcKvYH3JHYP0iAiBgEAgNAi8/vrr2LJlizQf61o1IyIiMli2bJnfUmhlrfK5n6JI2+xXjhKr0rNQ9P0fID09fUhZ0nvpg69jWpxuSNmqnjTkrfl9QHq5Mmrbt/b9A5Jyh56vMunM+MmSZzF5kugRcfxEKBAINQJERJs3b5Z8drmIqKqqCtRrGIqIqDKXPj0A0wvPI0fm9Muzklq2ambbeh/KHnnUM8nnc1X5XvSe/gmyUwe84nkKa/VWmCdsx7w13/ZM8vtMRPfz/b+AIaXVrxwlJujT8L0V3w2K6IZUKgQEAgIBNwS8EtHVq1fR1NSE5cuXuwl7eyDPded37YTqo72YIHPZymV1bG7IuGgpZn/t60FN+JLeK4d/h+imPZiQNpiMdIyEOpOXYdrKHwWll9fr04qDePHiHxCb5nv4Z+owYW3aJjy6qt9hE88rQoGAQCC0CJBjtPVs/jg1NXXAVSwRUWNjI1asWBFQaWSZfP6t3TCXn4Gqvg4qmxUO5nrVwpbs1SWlKLpr67DIgvRePvonWLWfIcrM9MIBh0IJsyobUZnLUTD/q8PSS40ionvt+Ov4pHU/4jIGkxGRUEnsAjy+dPhlBASeEBIICATwxhtvYOPGjZL/edfQrLq6Gg0NDQETEceR9qd1shWpHkZksYWFUMfGhmRIQ3q7OrWwtFUgOrUEak18SPQS0b39xR5UtlaiyVqPXvafsi8CmaocFKcXY2vJlmETHcdEhAIBgcDQCISUiIYubmxKENG1dbbhakctClMKEKsODYGOzdaKWgkExh4Cb775Ju68807Ess6LW4+ovr4eK1euHHs1FjUSCAgEbjoE3Ijo2rVr0hYPIiGarPa2+55O96CzxPgRPr4Qub5bxJVMR53Q/i5+bA8lkGFhWlqaS8bXDeUlH9ryvHJZWgXz527E8xgcf7rkeikf+WUilvZ18SOQ5O31LM9XXqqH5zluXJbr5c++Qm9lyetC+eT4cL3e8snL8NTB03zlo2+C2pOYOGBlz3X4ysN1egspD89PlvD8KCZyMyM/1keeV14OzytPl9/Tt0hY+NLlL7+8HNIp/0aod+3tt+GZR14XuqcjdTxlCFN/355cB00zyI9j8tTl7Rw23kZ+ThrX55mXHznlS57yeebhuiiP5++ep8nDI0eODPSImEV1H03iSpbNzNamuLhYLivdk2JqNP8wuICvivB0yucJhvwHQnK+dHjLy/VSSHXmL9+bDsovvziw8jjPe66HfgTyg/U85QIB2TMPf/aX1x9J8fw85O3jdebxPKQfB9/jx/XyPFyGh7508HRf+ehHTe0Zzg+b65aXLS+Hvjf+DuSkxPMNJ6RvgLDgeoPRwevG6yuvn5yUPHXyfDye56dnz98GxXmSC8XxS56X4vh75ekUysvz1C/PL88rz8N18d8LzyOX5zLe8vE0yu+rE0Ey9G3S4hitmtH34xqa1dbWgv6tWrWK6xKhQEAgIBAIGwK7d+/GunXr3Imorq4OtHK2evXqsBUsFAsEBAICAY6AICKOhAgFAgKBUUPgrbfewtq1a917RGzSGmTUKHpEo/ZeRMECgVsKAeoRERHRXK9rjoiIiPab3X777bcUGKKxAgGBwOggQD2iO+64QxDR6MAvShUICAQIAa9ERHZE5ApE9IjERyIQEAiMBAJERGvWrJGW8l1DMyIichdLCeISCAgEBALhRuDtt9+W5qTJINZFRJWVldIcETmzFpdAQCAgEAg3Anv27JHsFt2IiHbe09lmNHkkLoGAQEAgEG4EiIhobytt1XL1iMjcmk57FUQUbviFfoGAQIAQ8ElE58+fl9b1BUwCAYGAQCDcCAgiCjfCQr9AQCAwJAI7d+6UTpaePHmy+9BM9IiGxE4ICAQEAiFC4J133pF85CcnJw8QEfkiOnfunBiahQhkoUYgIBDwj4AgIv/4iFSBgEBgBBDwSkTNzc2oqKiQHBWNQB1EETcJAnRwZWZm5k3SGtGMkUTg3XfflU6WTklJGRiaCSIayVcwvssiL4Jkc0anMJAxGlnj5+bmIiMjY3w3TNR+RBHwSkTkKra8vFz0iEb0VYyvwsg1KH0j5EQvKipKssS///77odfrJX/nMeywzQULFvh1ETq+WixqG04EBBGFE92bVDf5Gj9x4oRkBTtt2jRERESA/BJzv9jkjP3s2bOgoRqREZ3eKS6BgD8EiIiWLFniftKr6BH5g+zWTCOH6eQgX6fT4dChQ8jLy4MmfSJaum2IVymQpFYiIUoJpVIpkRItw9JWITIDIS8OYqh2a343gbb6vffek+yI3I6cJiI6c+aMdLxHoIqE3M2BAA256Mie9vZ26RgiOiGlvLETNYZedJhtqK26AkXyBCgSJ0LBSAeKCECpYCewsLDPDrXSCZXTjDhVH1JVDqh6WuE0tGDVghJMKciXelH0sdFwTlwCAY7A+++/j4ULF0rHi7n2mgki4vDcGiEdA0RnzJH9WKO2FRf0duj64mBUxEPriAei4qBUqaCvqkBEtBpJk+cEBEyf0w6nvReGmkpoyz/GlHkLkJcYgWnxTtSdPYm8rDTp6HByD1paWors7OyA9Aqhmw8BIiIaxqenpw+smtHY/vTp06JHdPO9b7cWUa+H3AKfr2tCtUmFRkUampxpUMUwv8HKSDdZY3MNTK11SJu5FBGRKre0QB5azx1Ct7YWExZuQqQ6BvoLR6CwtCM5qg+zchJw7/ISFGSluuaZAtEpZG4eBLwSEc0DnDx5Ehs2bLh5WipaIiFAQy8in5qaGhxvNKJWmYMmRSYiNQMntHpC1WvuRkfVSSTlzUZ0wvAnnusPv83ypyFj9jJXEXZrD6x6LZxGLWZkRWN1XjwWFU0A2ZP4OgXXlVnc3DQICCK6aV7l0A2hk1kuXL6Kik4lqiMnQh+ZxeZ22DzPEJehtpINsexImVoyhKT/ZIfdhpZT+5E2YxGi41PchPucvbAZO2BhpDQj2YFZKQqsm5WLSZMmSatybsLi4aZDYO/evZg/f7770Ez0iG6u90yn9p45dwmnulSoUeXBrArc2NDWY2BzPBVIyp+LqFjfvaZAEeusvwSHpRsphbf5zNLbwwjJ0IrYjvMoS1di25pFmDp1qk95kTD+ESAiKisrk1ZXXZPV5Dif5oi2bds2/lt4C7eA5oBo8/JpnRWnUYDuIAiIw0a9IRrOJecX86gbCh1s8lp75m/ImLMCkdExfnVZ2WqbWd+EXFsdytIU2LZ5vTAD8IvY+E30SkSiRzR+XyjVnIiDCKicDcPOq6bgkjNvWA1y2Cxou3gEyQXz2MJZ8rB0eMtEE9fRielIyC3yljwozm42orexAlN7a7B9xVzJ8G2QkIgY1wh4JaLW1lbJcnbjxo3junG3YuU7Ozul3uwZNg9UrpoJY2/0sGHoaa2HSXcN6bOWDluHt4zWrna0nvucraBtZqtzzP4owIsIKerKB3iobCLWr1oOjUYTYE4hNtYR+OCDD1BSUoKsLDZvyf6S9lGFBRGN9dfmvX40F3Twi0ocZT0gXXS+d6EgYtsuHIU6JRtxmcPrUfkrSltxgPWIpkHD9AdzmdsbkGBtxtp0EzYtny92+wcD3hiWJSIiWzLy3iCIaAy/qKGqRkOx/ZU1OKGaDUvk8JfYeTmOXitaznyMrJI1zG4o9FbQxqYq9PZ0+p205nXxFppaa7FGfRX3LZsHci8qrvGNAB2wOG/ePOTn5wsiGq+vkmy+9lzSo1JVjIio0AxXultq2cqVFmnTF4YFFofNjJbyA8guXQcl2zQ7nMva1Yqp3SfxjdVzMH369OGoEHnGCAKiRzRGXsRwqtHR0YGjR4/iPa0GLYnF7Acdup5L28VjUCdnhWVYxtuqO/s54rILEJOaw6OCDvVXTyOy+RSef/xOQUZBozd2MggiGjvvIuia7Nu3D//zRQvsM+8atCUjaGWyDE6HHc0n9yGrdG1YhmW8qK6Gy7BbTUiZMo9HBR0a6s7CabMiWWHAc5tngNySiGv8IfDhhx9KQzMxWT3O3h251/jRu2wzqUWNrHm3h7T2NCTrrL+IzDkrQ6rXU1mvqYuZBxxjw7O1nkkBP2srPkHCxBlQqWMR3XQcz26ZhcLCwoDzC8GxgYAgorHxHoKqBa2O/fCdCnRnLWC72g9IRBSquSGqiJ5ZUjt7bUgtKguqXsMRbj71V6ROm8+stpOCzt6trZM24mbMXiHlpcnvOO1x/OyeUjGBHTSao5vBKxGRS4jjx49D2BGN7svxVjpZSz/90kfQZy5GVHwqOq6Ws7khZcCuObzplMf19TnReOx9JLINrvHZN24CINft7b79yilGQgmIzwluC4exuRqdzOo7beYSqJlxJL+sXW1I0R3DLx9ZLZb2OSjjIBRENA5eEq8iuWP97kv7cNmZi5iMfpKg1SdtxafS8CQU9j7ScOnSCaTPWCy56+BlhyukXo1F3xLU6pyprZF5AzglbZz1ZmxpbqvH7L4r+JeH1oJ8Z4tr7CPgk4iOHTuGTZs2jf0W3EI1/OWeo/hrjQ2J+e674KkXQD0jTXLGDfeMhkMMN/IK7BYTdGcPIvu2dYF5Aqg7jx7m1yilsJS1N8tn0cb6C7hroglPbl3lU0YkjB0EBBGNnXfhtyafMGPFZ9m8UNLMlV63RdBmUkN1OWxsnoQslmPTc/3q85XYfvkLaV9ZfM4UXyIhj286+RHSZy6GSsO8Qfq4aFsIrZBFqDRs79ucgOylbHXH8c2F6Vi3MDQbdn1UTUSHAAFBRCEAMdwqyGn9V3//ATqTZ0Od5P8AQxq2GJuYX2nmTzo2syAoQnKyoZ+u8lNpkloVkxDuZrn008oZbfWIzZjkiuM3VKeuhgtsPugcUooWBDVv5ei1QFP/OX7z4GJpDxPXKcKxh4AgorH3TgbV6Lk9x/CJNCQL3N6GNqzSEIa2asSk5jLDwXzWm/C/AZY8MbZdPIqsuavdel12mx59DiPYPDaUkRrmvzqRndYROuNJ8lHU57C5DSvtlh4Ymy+gu+Uqq/8kNnk+d0i3IYOAYxE0XzQvokaaLxIO+70hNDbiBBGNjffgsxZ/PdeAZ988gVS2RD0cy2ka0tC8j7mjCWrmppU2sdJckrflfiIvc3uTa+LYYWfkY/kMEYomxMRWM/ciathsqbBa2F421VLm23qiz3oHk2DuaGa9uKuMbGbC2tnGluQvM2+NVYhJNrAeENsEGZkOpWYlI6KB1bFg9JvqTuHvS+OweZlvZ2zB6BOyoUdAEFHoMQ2pxi+98D7aNfnQpN7Yj56GOKa2BlgNOljY5LaSbWQlj4tRcUmMUBIkh/m0EVUZGS35CbLb2tFnfgvJKWehjlG4tcnJekYd7bNh7V0OVWw+6x35dqZPPTLqStFpHk7mKlYKmeW2k8XTip/dYoalU4d25kw/fc4SqKJbEJ9Sj4w8A6LU/eX22tgRR71PweEscKtHoA9kvZ3Wdhy/2N5/gF+g+YTcyCEgiGjksA66pD9/dh5/OtKAlGmLg847VAYr8w9t6zZIO+DtFiMjBBP01RVsnmYis0+KgcJ+GEnJdYwYlGw1ixGC9O+6VnIWwzzGdHenw2SawXoshZJNE7nokC7yg83Ip48RjiIiUhrmKSJUjOQiWa+OheyfghFhRJSa9XI07IgiDTrrTiMx+wrSMquhjmVMJ7uI+JqbH2aO94dvYNnTXIV1GZ34zr2rZJrF7VhBQBDRWHkTHvUgm6EH/+MtWLKY1XGcu6N5D9GQPTYwQ8b0GfMZOR1ASuLH7Nz6PsYn7B8jHgrll0I6VBGMjBJh7r0Dqrj5cFjNbP4oSuph0XFEge6qpyGg7tSvMWlWExKzYuXFSPdWcwTa9N9gdkPD37pBzvntVz/Hr7aVoWjS8DfZDqqciAgJAoKIQgJj6JX899/K8dqZDiRNHX4vIJha0fBFV3mQEVEyEmL3IDbeHHD2Tj0jI9sGRMYsDDiPXNDe/T6cbbsQkxiJpEmDt3p06lnPy/4Y2092YwRC57ItitPixzvWyIsX92MAAUFEY+AleFaBzpl/4De70TeJzZnEDP5hesqH4tnMrJs76yqQPuUqMnMuB63S0J4Ii30zI6PgiLPXXANNxF/YYYs1bKhoQ/q0tEFla5uYryH1Drbqd2OniPQ5HVDUfIoXHl4ktn8MQnl0I7wSER3Ad+LECdx3332jW7tbtPQ/fXoWL5/QIblw/oghQKtW5vYK5M05EVRvSF7BtpZ4OCIfYHM+gR1J7ejtZhPiO5GReR5Woxn6awbkzHV3HcummaDTrYcq/k55UcO+p7mibXk9+MqGgUMeh61MZAwZAuTSpri4WDp23OUqljZWksMtscUjZDgHrIjOof+7/3ofWuboLCp+cO8gYEVBCkrHBln3o2DeNeaDKMjM18VZhwMdrRNgj/xyQEvtDssxqJx/QUpmBPNL5EDjmSbkLXRfHezQMVsgx5OIjgtuU6yvFjiZvVJGy0H85rH1Yh+aL5BGIV4Q0SiA7q/Iqtp6PPXGOcQUhvbkDH9lUlrr+YOIifsYebM6hxL1m05L7R1tM9lQivWMVL6PIHLYTYDpRaRn17Dl/36VNYfqkLdoIpvkvh7Botu02XBGf5PFhW7zqrn+NH64LBWL583y2xaROHII7N69G7Nnz0ZRUdGAz2rqER05cgSbN28euZqIkiQE/nPPAbzXmoqY9MkjikjTqT3InHQYmfm2Gy7XamZk1LEcEbFbGIF4t8B2mI8gXsMmqOMHSKf+eCMyZ2Uw+6Z+uyQiNX3HQihjH7zhOskVkK/r+biIHz+6UR4t7kcRAZ89IkFEI/9WjEYj/mnXZ2hIKvNq+RzOGjUc/TMblh1BQrr/bSCB1qGnOwZdxjvZsv7yQVnsVh2Utl1Iz6phNkYDyU3lzUjKTWRbOvp7P53tDnSb72WHMa4aEArRXcy1j/HbR1ciKWlkFgNCVO2bVo0gojH0aqurq/H03jpETgxu5elGm0DH2TV8/m+YseIa1HHDnCDyUgla1u82rWSGiKvdUu2mw0iMfRWaOBkLMQnthVZokjRIyI6T5A1tGlgjnmFzVqHfgNtVW47nbk9B2Rw2jBTXqCPglYi0Wq00Wb1169ZRr+CtVIGXP/wMrzQks2FZ3og2m5zlNxz6KeauM7B5HXdyuNGK9C/rb2TL+gskVbSB1mH8X2RPqnPNDfEy2q92MOtrJZLzkkDW1K3NbKNuwlM8OaShRd+MHemNeGSTO0mGtBChLGAEvBIRuYqlVTMxRxQwjjcsaLPZ8Oyuv6Eieh7zjNjfI7hhpQEq6DV3ofn4z1C6ic0P9W/vCjBnYGLUMzKZ5kOVsAm9lmZYdM8jfxbbg+ZxGeo72VYTO9IK2cZaaZ5pNcsTnj+GZFNUqNuPZx+/m1mQh64X6NEk8RggAoKIAgQq3GJE/v/42lF0T1gZ7qIG6bca2abTil+h+E5mtBOmy2R0wtg1GU5MhrW7DhMKWqBSuZORsaUbpg4zMmcyS2qSt3wVEeq5AdfI6bSwrSg2ti0ugk2SD94q4qkoquEQ/v3+EmHc6AnMKDwLIhoF0L0VeenSJXz7Ix1iJ83zlhzWOLO+Fl1XfotZa9z3k4W6UJu1DxER/V0ub7ZKPW0mdDV1Ibs4ixFRHzrN32NeGyf4rIaj1yD5MbJbLyJS2QFVlAl2m4UN62LQF8kOF4j1P8Ttqq3A8+tSMGPGDJ9liISRQUAQ0cjgPGQpr3x0CC/XJTCn+JOHlA21QE/rRZjrX8D0laM7RDEbLOio0WNCSTbzedQHg2EpFJqtkhM2MkTsczKisbQiQtkCOGuhVOigVrez9B6oNQpERvWTHM0vaZsWIiKOzAd894xo79l3pnVh7fIloYZU6AsSASKiOXPmICcnZ8COSMwRBYliCMSfeWkvLkTNZv59fBsBhqAYryq6Gk/Dqf8jpi4OzdK910ICiLQabWi91IbcshxJWhqeGYtZD4d5AHD0MIPLbjafo0OkSsF6Pwq/FuAdbfmwKR5m5JTqs+TeHj1WKivx9I5NPmVEwsggICei/wcAAP//QfSQVwAAHepJREFU7V13dJzVlf+NRhpppFEfNcuSce+4N7CxDcYGm7ZAMCFAAil/LEk22ewhCTmc5JzsknOSs5uyIWWz2WyyGEwzxQ0TwBQ72BjbsiTbcpWtMmqj0Wh6n733kz9pZjSaPmMFv3eO9H3fK/e97zejq/vuu0XhpwIqer0ehw4dwh133MGPoqQZAa/Xi6//7g301KxFllKV5tlGkzd1HAVMv8aUFSWjGzNY47a50d3ci7rltcOz+nx0Sz9Z2cNVMd0Y9PVwKR5Ftqp8zP5etwPzzIfw9Bc2QaXKPO5jLuwabNi3bx/mz5+PCRMmQCEY0dX5BlgsFnz9T+/AUn/LVVnAYNsnUFp/ieuWV16V+eVJ3Q4PdCe6MGlFnVyV8LW3ezb8uZ+HMrtwTBp+nxcT9Qfw4603oaioaMx+oiH9CAhGlH6Mo87Q19eHf3rpU7gmro7aNx0dTB3H4TP9F6atyEsH+ZhpepxedB7XYdLK5BlRV8cS5BQ/HHXuQt0B/PT+paioqIjaV3RIHwJvv/025s2bJySi9EEcnXJbWxu+vfMCFBOXRu+chh6mztNw6bdh1mprSqnztsrn8dO2SoGsrOikvW4f2j/twHWr6qN3jtDDafdjYPBOZBfEIGG2H8bP756JurrkmV+EJYmmKAi89dZbmDNnDurr68XWLApWaWs+d+4cvr2vC3l1i9I2RyTC5q6LcOj3YuqSc1DlKiJ1jbnNZvbBYq6CIqsYfhTA6/EgO9tCXzI9CorMNE8WbZuCyaWKEQ30V8Lp/wqyc6NLOdZLR/HsnfWYMmVK8GLEU0YRYIlo7ty5qK2tDWZEhw8fxpYtWzK6mGt1slOnTuFb75pQVD8Xlp7LwTDw+YFCAZ/biayc3OE2BdUNlyv3PpcDWaqR7ZXHYUN2XkFINwW8bheUOSPKWWvvZTjNHdDWnUFJaTsxjyHagVOEEBl+5Bvu5/P6pXF87yCJxGxdjay8jVSnlPr6/R74/V547L1U5wa8l6BUdECZ1Y/cvH6oNSQykQila9ChbtkV6STgFYMmpAevy0uMJoSTUT2vo7d3EXIKP0cLCxTDFGCdkLweGb/BS4345e3VuP7660OnEM8ZREAwogyCPdZUjY2NePKAE5raWeg/+2lwN5kReVy0xRlhHlKnoUNO+gOXDjvh97qhUOYMj/c4LEGMSG7wMa0r/Xisrb8TPpcN6pJBaNQHkZt/hQMMkZWHBUw5uoH+xqXCfMdiyoUTD9Ic+SNj/bRPY8ZwZa3c4PM6iSka6T9gN3IULdBo9Og9o0f1HFlp7h/uzgxOHsr3HreXJKohJse0uI6L1ZoHu2sDvffEoYqA34GMSMbM3nsRTywpxpe//OWAnuI20wgIRpRpxMPMd+LECXz3oJsY0cwwremvMneeg5ukp5LJM+G3/BbaqrZR26Z4VqHvoS1R/lPxDIHXeRia7G3oO90ZXUc0mg/SXH64XH70961CVsE9w2YQft+QpDbMxa6sykfSVxYprkxtJ/GLDSXStiCuBYvOKUVAMKKUwpkYsUCJKDEKyY0y687DbbeibOoC+BwHocl7CfmFgdua+OgzI/Krv0dSSuw0vJ5BeAZ3wNG2C1Nvil9Z7fWQ/VvvXPhV99CWTRvzgk2Xm/HLW0swe/bsmMeIjqlHQDCi1GMaN8WTJ0/in/dbUFg3J+6xqRhg1l0gRmQmRrSQlMq0nXP/FuWVuoRJG/oq4c7+JklVI/qpWIg5zZ3obfgLJiwshVLppK2mBXkFTuRkW0nC4a2YYpSk5iEpyOHIJ8X4RGJC9yInrzqWqYb7WNub8ItbyzFz5tWRRocXco3fCEY0Dr4ALS0t+ObbBhRNmn9VVsOnZi6LEeXTF5POhk62XK+isroh4bWYjUpYPU+SZCLremIjxcr13pMHULN4Ax3720ghbZCkKp+PdF8w0u6Lfnx22oSRQooVRgrSESm0dKkhnZA2WCcV25TwdB7Hv2+qxdSpU2McIbqlA4GwjIgN7PjUTLh4pAPy0TRbW1vx1R2XUDLt6tgRWbovwWXuR/F1M+B37EdR4btJbc0cVh+M1keQrY7vfVgq07d8gppFt4wGKaDGz4pvKvFs/QKGB91m647gZ3dMF3ZEQahk/mHnzp3S9njatGni+D7z8A/NqNPp8JUXmpA/7YaML8HrscLa1QB7/1FUTMtBUfEZ5MmnZgmuxk3bJX3fGuQU3RcXBZdlAIbzx1G98Oa4xiXTuaCTLKvvW4yqqqpkyIixSSLAElFYy2phR5QksnEMNxqN+Mr/fghMXh/HqPi7ej0m2vKY4PcM0HH9SeTk9JP+ZQAeSzucRhPqFsenX4m0gt6u6eTr9SjZK2kidQtqc5r6YbzUhKrr1wXVp/OhtOM9/MejN6OwcGyftHTOL2gPISAY0Tj4JjgcDvzjH/fBWENGgCn2vvc4+4j5kJGij47ks/qQrexGgaYf2TkKyayHXS9s/TYYO0yYsCB1jMg0kE96oq+T8rgmZoTtA92wkOK8Yu6NMY9JtmPV5d349Te20jbviiFSsgTF+IQQEIwoIdhSO4htWv7lf3bjomYJ6VVS95/ZZTkGlXI//bfXISeX7WbCr9tudMDQOoDaRbEzjfCURmpdDrLpGaBTLM1NI5VR7mz6Ttj62qGdvTJKz9Q0e+wmLHcfx1OPiHA3qUE0cSpjet+LrVnioCYy8qevvo8PjFVQa0dbBCdCz2W7hPyc/0NJmSHqcKfZhT6yaJ64ZAJpgEd3Z50PlxxVmMbR3aUa4q3o7ZoHZeFjMSuV2b3FOdiH8hnxKbnHWELUaodBh6/W9eDuDbEzy6hERYeEEGBGxG42NTU1I8pqPjU7cuQINm/enBBRMSh+BLZ/1IQ/HjPRyVXyPk983O027UJN7YdjSkGBK+SAZD2nejFh0QTaGo4wG3bbsAz6YHXcQfxJB03BcTpNi82TnukP6EvhVHyDgpOVBk435v2QhTcbVi4cs08qG5SGFvxqc71QVKcS1ARpCUaUIHCpHqbr6cVDf/gE2vlrkybNeiEVXkCZtjUmWhwHqLupGzULaki5PLJ/YyZksn8NqoK5Eh2XpQlF+f8NTfFIn0gT2C10jG/ZipyC2E4DB9tOk3mQHyWTMmPYWWs4hCc3zpE8viO9h2hLPwKCEaUf45hmcLvdePw3u2CpXU3MYMSDPqbBIZ3ctnZy0/gzCov7Q1rCP/q8PnQe7UL19VWkXB7yaLcyE7JQcLGiR4MGeS0voLj4cExH/BwXyGhcAqXmkSAaYz0YLjQgR61B4YRpY3VJaf28vn34wRfvptPDEUfhlE4giMWMgGBEMUOV/o4/e2U/3jdVQ12enJ7IZbuMkoI/IF8Te6Cz9iOdqJxdgVzNkId/j46svNX3kUtFcdCL+7w2wP47aCvaY4ojre+phlf1BNGJfozPxozq8hoUVNQFzZmOB+dgDx7WXsbWzZGNJ9Mxt6A5GgEOjLZw4UJUV1cLHdFoeDJbc+DEGfzoHV3SFtYsERXl/xwFhUNK5ljeoquxG8W1Rcgvz4dRnw+b+/NQaeaFHeqxf4JC9UtEn5RIUQoHSDM7Hocyb0GUnqTcbv4IRRNnIq8kPteQqITDdMjrb8ZTK4ulqIBhmkVVhhEQjCjDgEeazmq14ovP7oZ/xqaYT5rC0XM7upGv/D2Ky8g3K8bCp2a5hbnQVBfSaddCCqVxHymuw0sxPp8DPsufUFl1NqpUxCduBsMNUBY8EHElrBvqObFfOjHLyU9/IPsp+v34/r1rUFoamyI94uJFY9IICEaUNISpJfCDbe+gwVlHWxQ6Sk+weFxGKD3bUVF1JmYKhkvsUOqHsnQabK5HkJM/KeJYj/0UClTbUFhCW7Uopa+rDr5ckopySsbs6aVgbX3NB1AxZxWUKvWY/VLR4DT14oGiC3jk7o2pICdopAABwYhSAGIqSXzcfB4/2ncJhdNWJEzW53PBa34TNRMPxkzD3G3BQKcVOTWPIVtzS1SJjEO/es3PQVvZIFlpR5posF8Fm+8JUoTXj9nN47CSw+thVNKpYZaSvOrTWAr6G/C9VVoRgyiNGMdLmhnRokWLJFOK4bxmwo4oXhhT15+TLT7x7A50V6+hMBrxxfMJXIXTch7FmhehKdQHVoe9Z2d2g84PXUshqpY9RbZHsUkkbnsrGU3+BcWlkbeAbGVtGLiNGNxtYefnykz5mfk8TswxHsAPHtoEtTq29xxz0aIhZQjs3bsXixcPOR8LRpQyWJMj9PpHR/HbE24KlDZkv5MINfaq91r2oLTsMNQFo5XKHNHQQzHsrdZ6CnZfBa9/JgznOlG7/K6Yp+NwHB7zi6QrogSNo+PYB9Hp0c2GouBLxORC4m5f6WUl1w57fxe0s5YHjUv1g0V3Ft+Y48aWtZlxI0n1+j+r9AQjGoef7ODgIL7153dhosyvycTc4SBnHsd5KLwnKeKhi96Uraa98HopqH0WhVOlgGJZykrKDlJCVxU6j+xF9YL1pKOJ3Y7Jbe+UXEmKS3siImk0VMLueYzshMI71g4ZM3rJmDH8SV1E4jE2+n0elOk+wE+2roZWS+8vyrhBICwj6u3txdGjR3H77bePm4Veawv5464P8UpnMQqqpyT96j6vi1LpECNS8HF+FimNacsX5mR/6Ph8Bh2fxx6bh0/QvJY3UVXzcUR3ErOR8pw5HiQr61Vh34ezl+QWV0BTFVlJHnZwjJUWis39wCQLHt+8JsYRolumEBCMKFNIxzlPT08PvvvyIVjqbo5zZOLd+04elJxu88nx1uukrR3lSfPR/s1H+zhOVeQnT1bp50qERHkmr7MbatVbKCrRk2SVRUf6WXAMUo41uuaXqSmUK7mEUJiN7o75UFc+RvWjt2c9jftRQn52uUXlMtmUXpkZa1ka+vxalJenZ46ULvgaI8aMaMmSJaisrBwxaBQS0fj4Fmzb9xGeay1AQc30tCyIY0Q7zQa4bUYKv9FBCmM93FYTNDVTpPxoSnJ94C2bghRA/COdZlFmjqHtIm/zhsQqn9dBwdXepz/w47T5ozpiOpY+i7RmlTqHmBflJ6OfgX4tvFlriZaGaBE9YkhZ2UQ7KxsDFxukEzNVQQlJTUW0hUtdOBReiEN3El+brcBd6xI/jZReSPxKCwKCEaUF1tQQHRgYwNPPvwtd9Tr6gx3J8posdSsxHRtld3VZB5FH2yGOgcQSA5/SWXouRY0ZHW5+tuZW57xMYUfawzVLdVZLAQYtlAo6r44kLNeQtEUSl4NCf/SfOYKyaQuJKZopowgxMZK6VJoy5JVSaBSyqVJmJ+4P5rYaMdV0GP/66Gbk55N+TJRxh8CePXuwdOlSIRGNu0/myoLeO3wMv/qUUvxMXJT0ElniMbWfIaZDyRxrppFPV7BPGxsVdh/7K52cbYl7LrZd8pjfoRO0tyPaFek6N0FVFHyMb+1tg93QHXRi5nXZYR/ohYOiNjqMPVCXTZAktdzCsvjXdvljPH1LPRbNnRX3WDEgMwgIRpQZnBOehe2KfviXPWgA+WCVJR5BkVMGDVIywWI6lSqkrddYpev4O9DOXE6W1fG7WbBrSbZvN1l0N49FHt26BVCo/yHImdZw4QRJY2ryM5sRdpzX7YSVgqZZelrJDaUcxfVzSKqKTbKxdp/HhnIDvnO/cG4NC+44qWRGtGzZMlRUVIzoiFhReuzYMXFqNk4+pI6ODjz56lE46hKLaT3Y1iLlt9fOXBaVwbAHPG+HEj29cpqPo7hwJxlSDoRFb0A/EQ7/Q0GxrHsa3ycGOVfaJoYdFFBpvHwKgxRgv3zmCvKLuy6gZfSt20rhb/Uf498e2Sh8ykbDM65qtm/fLllWc6LLYYPGS5cuoaGhAffcc8+4Wuy1vJg9B47i9w1m5NQtiQuGQdqK2fs7UTFvTUx6lmSjJHrdZvhseyhB46GwRo4OWx4MJg62Nll6Dx9JfLpP96J22e2ktI7NtWPICruRpKJClExZMOZ7qdoP4OmN0zF7RmbiG8X1wYjOQQjs3r0by5cvFxJRECrj8MHj8eDZ19/DW3ptzKdonDix79RB1K+5n2yHYlN28ynaAAUoSya3mMdBxo2uPSivODEqzjVbdPfq76eTsaFMHXZDFzjldeW81XGjzqmHrL1DwfZDdUe2tmN4bG4ePnezOCWLG9irMEAwoqsAeqJTmkwmPPPy+2hSzKCTpNqIZDgjxsDFE1JGjNA/0kgD2W1D9+k+srBel5QXvJTGyL4P5VoyVFSPxMF2OTm7xxeIES2TlsHMRJGVQ3qfxBTJHHCfdV9l0xaTQntIh2buaMHaciO+v3UDWRKMzB3pvUXb1UWAGdGKFSski/fhrVlnZ6ekI7rzzjuv7urE7KMQYP3dd7Z/jMGy+WT8Fz6AmJksiNllgrNhyH+cowhFqGAv+LzS6oT1RDJpKaGj7QPk5Z6msLU66TTNPKilQGmPQJU/5Inf3fAeSilYfjzMUqYvXwdaG8GMt5LyofFR/QzvOfzrFzZAowkfT0keJ67jB4GwjKi7u1vSEd12W/Ax6/hZ9rW9kra2Nnx/x1GYKxZLtjaBaLA1dO/JAxRpsZakjNmBTTHfm7ta4aKj/nJSbqeiuB2dULg+IhcQMnz0aaFUk7RFGWBdxDTYtaNm0Yakp2FdmLXnIuZWZeOZrWskXUPSRAWBjCEgGFHGoE7tRK2trfjxruPQly0lZjQSZbDzk90oqJqcVCYMjg3Ud/oQWTqzgnu0O0aib+J1D5JhZuEVy2yAT8DIspFcO+YnSnJ4HMegth78M/7zmw9i7tzEoxYMExQ3GUUgrI6oq6sLjY2N2LRpU0YXIyaLD4GLFy/iJ7sb0FO6EKrCCvQ0fSBZR6ciQWFv84eS0WN+EpEio72NtC2bwv5l2mhdI7azwWNBfxO+NDsPkydPxqxZiembIk4iGtOKQFiJSDCitGKeUuKXL1/GD187gg5UknuEDVoKtZpM6BB5cXySxcfk6YoPxG4dxtampE7neK1smlBmPYtn7llEW78ssFvMvHnpCyUi4yOuqUUgLCPS6XRobm7Gxo0bUzuboJYWBPgfxzOv/Q1n/fUonJgaacDjtEFP2zPtrBVkr0NhQ1JcDOeOSj5uY1lTxzKdtfsibiigtNEbFklpaOx2OxwOhzBejAW8cdZHMKJx9oEkuhwOpvaHtw7hgKEA2ROip+6JZZ7+c8ckJlRcNzOW7jH3YZcN3pYlaiLAAc4cuhbcVT2IB8hOSGTiiBn6cdtRMKJx+9HEvzBOybPrg8PY0WKEoXgeuXMUx08kYAQbNxrOH0PV9euHQoAEtCVzyydcXocFZdPjsxLnOT0UJ6l48CTunaLChpWLUVCQemktmXcTYxNDYNeuXVi5cuVoO6JTp07h1ltvTYyqGHVVETh79ix+89cGdGhom1Yy5EqR6ILkYGmJ+p6FzuulsB9y/rJ4bYdYHzTVcxZfWjEZC+bNofC3sbmEhK5BPI8/BJgRrVq1SgpaF2TQKBjR+Puw4llRf38/9h85jg96stGeN5O2WIkZ99n6dRQ6pCVppbK8dvZlY0mLdU+xFs68oTacwvJCMz530yJMmJB4zrdY5xT9MotAWEbE3t4tLS3YsCF5Q7PMvo6YLRQB/ofy4sFmnFRS6I/yxHQ9vZT4MJ/y0ScrFXG8o97GDyRLag7IFkuxdp3HLP9FPLxqKq4n+6AcihopymcPAcGIPnuf6ag3Yh+1jxua8OEFAy7nToGjYOxEh6MGUwXb6QxcbETN4uS26ux2wsaS0eycWNdl17ehwtmK9ZOLcdfKeSgriz8gWrh3EXXjE4GwjKi9vR1nzpwREtH4/MwSXhW77pymz/XjDhtasyfCkFsfs80RH7dnUSrokklzEprfbTNJmVy1s1eOGY9aCoDWdQ51WXqsnJiPO5bPQU1N4sHgElqoGHRVENi5cyduvPFG6R/OsI6IGdG5c+dw882ZyyBxVd7+Gp2UGdL58+fxtwt6tOdUo81fgxyKDx2psCTTQ9sqZiTxKplZwtGf+puULijUbojD1rrN/ZJh4tS8QayZUoYNC6dLdkGR1iPaPlsIhGVE7FTJX1TBiD5bH3bo2/CWTfqs2zpxftCLbmU5OqGFU1kcNlg/O8Pa+i6RD9q6uMJrGClMh8dmQTllcWWrbzaWZKda12AvqrJNmFWhxtrZE7F4er3wmA/9kK6R57CMiN0GLly4IBjRNfIlYImFT9k4xAinkjrZQ06vXhVaXUUw+DTkLV8kbcuylDkYaG2Wcp5VzLkhKjpseGi83ARL50UU1c2AjyIDKF0mVKj9mFJdivWzJmDZtBoUFhZGpSU6fLYRGJMRsUPl+vXrP9tvL94uLALsJsGW2gaDAV39RrR0D6Jt0A2d1YM+ezb6OlrB9kAcZiRbzQaFFHyMky96OQEjJWSkNqXfBQeF5chymTF/0VLMm1yDuTWlWDiJIkySEWI25TMTRSAgI8CMaPXq1ZKV/LCOiGNWc5gJwYhkmMTV7SZdDv04nZRRw+lCQ1Mz6REvoKyyGtX1U+ElaUmtykGhyg+v2Yjerk7pS8WZGXJzcwWAAoGICLz55ptYs2bNaEbEzGjdunURB4vGaxsBs9ks/cPiLZ3VapW833mbp9Vqcd1116G2NnI422sbPfH2gQgIRhSIhrhPGAHOv+aj7ZkwOEwYwmt64Msvv4wbbrhB+uc1vDXjbRkrrIVEdE1/N8TLCwQyhgBLRDfddBNKSkpG8podPXoU7OZx9913Z2whYiKBgEDg2kXgjTfewNq1a4MZEZ+YsVEjN4giEBAICATSjQAzIt6BFRcXj0hEbEPEKYVYVBJFICAQEAikG4ExGRGHi+XjNFEEAgIBgUC6EXj99dclc6EgiYjdOzgOsmBE6YZf0BcICAQYAWZE7FJWVFQ0sjVjRsSOkWzpKIpAQCAgEEg3Aq+88oqkI2IbtOHje/a8ZyM1wYjSDb+gLxAQCDACr732mhR2iP0OhxkRxzzu6+uT4oMImAQCAgGBQLoR2LFjh5S+TKPRBDMivV4vWTqmewGCvkBAICAQYEbEmaXZIXpYIuLojBwWgk2uRREICAQEAulG4NVXX8Vtt902mhFxCAhO7yGKQEAgIBBINwKsrN68eTPy8/NHJKLTp09L8Wg44ZkoAgGBgEAg3QgwI9qyZQvUarVgROkGW9AXCAgEwiPw0ksv4a677kJeXl4wI+J4xitWxJ4ELzx5USsQEAgIBKIjwIyInew5iN6wspqT8nHQK8GIogMoeggEBALJIyAYUfIYCgoCAYFAkgi8+OKLuPfee6XAesMSUXNzM+x2OzjesCgCAYGAQCDdCGzfvh333XefYETpBlrQFwgIBMZGgBnR/fffL2V3CZKIOKXM0qVLxx4pWgQCAgGBQIoQeOGFF/DAAw9AqVSOKKubmpqktDGCEaUIZUFGICAQiIjA888/j61btwYzosbGRimH1ZIlSyIOFo0CAYGAQCAVCDAjevDBB6WUVMNbsxMnToDTwyxevDgVcwgaAgGBgEAgIgLbtm3DQw89BIVCMbI1E4woImaiUSAgEEgxAs899xwefvhhiaqQiFIMriAnEBAIxIZAWEbU0NAghQGZP3/+kKhE4lJWVpZEMfDKYhQXrpNEKharQvrK9dxP7i9fuU4UgYBAYPwhwKnD5cIZfLnIV26T2+U6+RrYT66Tr2ON4/a9e/fi8ccfl+YZlog4cP57772HsrIyaUKZQDxXpsj95UWEMh+u56M6LoHMKtyzzPzCtYWODezL/SM9y2uQ1zbWNdy8oXXy2NB6fuYitwde3W53UIpmuW1oxOjfybaPpjiyLrmNzTbY8fBqFP6+hCtWq1WKUyO3hfaTn+XrWP24nvsE9gu8l8fJ31n5WR4XeA28t9lsktd4YB3fcwmdL9a6WMbJaw+9hs7B+l7+OwjtJ88RWC/fMw258PdO/uG6cPfydzPWNvnvkvvznLW1tViwYIE05TAjkheQyqv80kyT7/mPUGZEoW38LPfja+AXI1rfwPZoYz0eT9AaAucMpRPtOdxcofT4WS5Mz+VyBTGiwDb5PvTK46KVWPqEo8HjMs2I5C9wuPXIdaGMSB4jX7lf4L08Tq4Lvcrt8ji5Xa4PfJbv5Wu4Mbw+DnEqt4XSCR0b2E9u46t8L4+X/1jH6h+tn0yPv+cqlUrqHjiPTD9cXeCc8jyZuqaVEWXqJcQ8AgGBwN83AoIR/X1/fmL1AoHPBAL/D2QoAJWiv4/VAAAAAElFTkSuQmCC;" vertex="1" parent="1">
          <mxGeometry x="1460" y="895" width="290" height="176" as="geometry" />
        </mxCell>
        <mxCell id="pK6xOEjmNQUOr7NdrkoV-15" value="Client" style="rounded=0;whiteSpace=wrap;html=1;" vertex="1" parent="1">
          <mxGeometry x="1545" y="1045" width="120" height="60" as="geometry" />
        </mxCell>
      </root>
    </mxGraphModel>
  </diagram>
</mxfile>
